<svg xmlns="http://www.w3.org/2000/svg" viewBox="0 0 570.8 800"><defs><style>.cls-1{isolation:isolate;}.cls-2{fill:#fff;opacity:0.48;mix-blend-mode:overlay;}</style></defs><title>Artboard 1 copy 3</title><g class="cls-1"><g id="Layer_5" data-name="Layer 5"><path class="cls-2" d="M475.48,462.93a20.88,20.88,0,0,0-16.36-20.37,15.47,15.47,0,0,0-25.9-5.81,15.44,15.44,0,0,0-11.2-4.8c-.25,0-.49,0-.74,0a20.84,20.84,0,0,0-28.91-24.37c.06-.64.1-1.3.1-2A20.88,20.88,0,1,0,351,408.79a15.48,15.48,0,0,0-24.69,10.38,20.84,20.84,0,0,0-36.65,7.42c-.24,0-.47,0-.72,0A20.88,20.88,0,0,0,268,447.43c0,.22,0,.44,0,.66a20.87,20.87,0,1,0-5.13,41.09H475.48A115.94,115.94,0,0,1,459,483.32,20.88,20.88,0,0,0,475.48,462.93Z"/><path class="cls-2" d="M196.72,376.12a15.91,15.91,0,0,0-12.46-15.52,11.79,11.79,0,0,0-19.73-4.43,11.76,11.76,0,0,0-8.53-3.66l-.57,0a15.88,15.88,0,0,0-22-18.57c0-.49.07-1,.07-1.49a15.91,15.91,0,1,0-31.62,2.39A11.8,11.8,0,0,0,83,342.78a15.88,15.88,0,0,0-27.93,5.66l-.55,0a15.91,15.91,0,0,0-15.91,15.91c0,.17,0,.34,0,.5a15.9,15.9,0,1,0-3.91,31.31h162a88.35,88.35,0,0,1-12.53-4.47A15.91,15.91,0,0,0,196.72,376.12Z"/><path class="cls-2" d="M295.05,114.93a10.51,10.51,0,0,0-5.14-9A9.13,9.13,0,1,0,276.6,93.56a9.11,9.11,0,0,0-9.93-3.32,10,10,0,1,0-18.88,6.6A8.24,8.24,0,0,0,235,100.71a12.68,12.68,0,0,0-23.61,9.23A9.14,9.14,0,1,0,205.42,126l89.63-.83-2.89-3A10.47,10.47,0,0,0,295.05,114.93Z"/></g></g></svg>