<svg xmlns="http://www.w3.org/2000/svg" viewBox="0 0 177.87 79.57"><defs><style>.cls-1{isolation:isolate;}.cls-2{fill:#fff;opacity:0.48;mix-blend-mode:overlay;}</style></defs><title>Artboard 1 copy 3</title><g class="cls-1"><g id="Layer_3" data-name="Layer 3"><path class="cls-2" d="M168.42,56.7a16.91,16.91,0,0,0-8.27-14.54A14.7,14.7,0,1,0,138.73,22.3a14.66,14.66,0,0,0-16-5.34A16.14,16.14,0,1,0,92.36,27.59a13.26,13.26,0,0,0-20.64,6.23,20.4,20.4,0,0,0-38,14.86,14.71,14.71,0,1,0-9.56,25.88L168.42,73.2l-4.65-4.86A16.86,16.86,0,0,0,168.42,56.7Z"/></g></g></svg>