<svg xmlns="http://www.w3.org/2000/svg" viewBox="0 0 177.87 79.57"><defs><style>.cls-1{isolation:isolate;}.cls-2{fill:#fff;opacity:0.48;mix-blend-mode:overlay;}</style></defs><title>Artboard 1 copy 3</title><g class="cls-1"><g id="Layer_5" data-name="Layer 5"><path class="cls-2" d="M177.87,59.55A15.91,15.91,0,0,0,165.41,44a11.79,11.79,0,0,0-19.73-4.43,11.76,11.76,0,0,0-8.53-3.66l-.57,0a15.88,15.88,0,0,0-22-18.57c0-.49.07-1,.07-1.49A15.91,15.91,0,1,0,83,18.3a11.8,11.8,0,0,0-18.82,7.91,15.88,15.88,0,0,0-27.93,5.66l-.55,0A15.91,15.91,0,0,0,19.79,47.75c0,.17,0,.34,0,.5a15.9,15.9,0,1,0-3.91,31.31h162a88.35,88.35,0,0,1-12.53-4.47A15.91,15.91,0,0,0,177.87,59.55Z"/></g></g></svg>