<svg xmlns="http://www.w3.org/2000/svg" viewBox="0 0 570.8 800"><defs><style>.cls-1{isolation:isolate;}.cls-2{fill:#fff;opacity:0.48;mix-blend-mode:overlay;}</style></defs><title>Artboard 1 copy 3</title><g class="cls-1"><g id="Layer_3" data-name="Layer 3"><path class="cls-2" d="M317.14,494.64a15.91,15.91,0,0,0-12.46-15.52,11.79,11.79,0,0,0-19.73-4.43,11.76,11.76,0,0,0-8.53-3.66l-.57,0a15.88,15.88,0,0,0-22-18.57c0-.49.07-1,.07-1.49a15.91,15.91,0,1,0-31.62,2.39,11.8,11.8,0,0,0-18.82,7.91,15.88,15.88,0,0,0-27.93,5.66l-.55,0a15.91,15.91,0,0,0-15.91,15.91c0,.17,0,.34,0,.5a15.9,15.9,0,1,0-3.91,31.31h162a88.35,88.35,0,0,1-12.53-4.47A15.91,15.91,0,0,0,317.14,494.64Z"/><path class="cls-2" d="M507.79,411.6V400.38l-4.35-5.28a11.95,11.95,0,1,0-13.58-18.38,11.91,11.91,0,0,0-13-4.34A13.11,13.11,0,1,0,452.19,381a10.78,10.78,0,0,0-16.77,5.06,16.58,16.58,0,0,0-30.88,12.07,12,12,0,1,0-7.77,21l111-1.39,6.21.3Z"/><path class="cls-2" d="M269.71,346.55A16.91,16.91,0,0,0,261.45,332,14.7,14.7,0,1,0,240,312.15a14.66,14.66,0,0,0-16-5.34,16.14,16.14,0,1,0-30.38,10.62A13.26,13.26,0,0,0,173,323.66a20.4,20.4,0,0,0-38,14.86,14.71,14.71,0,1,0-9.56,25.88l144.26-1.34-4.65-4.86A16.86,16.86,0,0,0,269.71,346.55Z"/><path class="cls-2" d="M570.8,156.1a16.91,16.91,0,0,0-8.27-14.54A14.7,14.7,0,1,0,541.1,121.7a14.66,14.66,0,0,0-16-5.34A16.14,16.14,0,1,0,494.74,127a13.26,13.26,0,0,0-20.64,6.23,20.4,20.4,0,0,0-38,14.86,14.71,14.71,0,1,0-9.56,25.88L570.8,172.6l-4.65-4.86A16.86,16.86,0,0,0,570.8,156.1Z"/><path class="cls-2" d="M98.77,57.28a10.51,10.51,0,0,0-5.14-9A9.13,9.13,0,1,0,80.32,35.91a9.11,9.11,0,0,0-9.93-3.32,10,10,0,1,0-18.88,6.6,8.24,8.24,0,0,0-12.82,3.87,12.68,12.68,0,0,0-23.61,9.23A9.14,9.14,0,1,0,9.14,68.37l89.63-.83-2.89-3A10.47,10.47,0,0,0,98.77,57.28Z"/></g></g></svg>