<?xml version="1.0" encoding="utf-8"?>
<!-- Generator: Adobe Illustrator 24.0.2, SVG Export Plug-In . SVG Version: 6.00 Build 0)  -->
<svg version="1.1" id="Layer_1" xmlns="http://www.w3.org/2000/svg" xmlns:xlink="http://www.w3.org/1999/xlink" x="0px" y="0px"
	 viewBox="0 0 1920 1080" style="enable-background:new 0 0 1920 1080;" xml:space="preserve">
<style type="text/css">
	.st0{fill:#E9505B;}
	.st1{fill:#2B2422;}
	.st2{fill:#F9E4EC;}
	.st3{fill:#FBB03B;}
	.st4{fill:#F6FBF5;}
	.st5{fill:#C13E2F;}
</style>
<g>
	<g>
		<path class="st0" d="M1072.09,417.14c-12.01,16.02-44.83,24.02-72.86,41.63c-28.02,17.61-44.03,50.44-50.45,60.04
			c-4.05,6.08-13.84,4.79-20.52,3.03c-5.43,12.95-8.57,23.8-8.29,28.2l113.67,12.81c0,0,25.62-52.03,39.24-71.26
			c13.61-19.2,55.23-40.83,60.84-61.64c5.18-19.26,9.01-63.82,8.27-84.97c-10,2.05-24.92,8.37-37.09,19.32
			C1088.9,378.71,1084.09,401.14,1072.09,417.14z"/>
		<path class="st1" d="M1124.92,268.24c0,0-10.4,4.8-9.61,9.61c0.81,4.79,3.2,23.21,3.2,23.21l-8-20.81c0,0-4.81,1.6-6.41,5.61
			c-1.6,3.99,0.8,16.8,0.8,16.8l-7.2-12.81c0,0-5.61,2.41-6.41,7.21c-0.79,4.8,0.8,5.6-1.6,12.81c-2.41,7.2-28.82,35.22-43.24,48.03
			c-14.4,12.82-30.41,42.44-37.61,59.25c-7.2,16.82-2.41,22.42-32.03,37.63c-19.43,9.98-38.17,42.36-48.54,67.07
			c6.68,1.77,16.47,3.05,20.52-3.03c6.42-9.6,22.42-42.43,50.45-60.04c28.02-17.61,60.84-25.62,72.86-41.63
			c12-16.01,16.81-38.43,32.82-52.84c12.17-10.95,27.09-17.27,37.09-19.32c-0.06-1.72-0.14-3.31-0.26-4.7
			C1140.14,321.88,1124.92,268.24,1124.92,268.24z"/>
	</g>
	<g>
		<path class="st0" d="M1372.44,593.36c-13.77-11.8-49.08-5.24-49.08-5.24l-1.96,29.51c0,0,17.7-1.97,35.4-1.97
			c4.13,0,8.13,0.98,11.86,2.45l7.68-20.61C1375.13,595.98,1373.86,594.58,1372.44,593.36z"/>
		<path class="st1" d="M1390.25,633.36c0,0-3.27-22.68-13.9-35.86l-7.68,20.61C1380.98,622.97,1390.25,633.36,1390.25,633.36z"/>
	</g>
	<path class="st2" d="M1335.03,603.25c3.77,14.26-1.43,28.01-21.54,33.34c-20.07,5.32-47.43,0.21-51.22-14.06
		c-3.77-14.27,17.45-32.26,37.54-37.58C1319.91,579.62,1331.24,588.99,1335.03,603.25z"/>
	<path class="st2" d="M1269.84,601.28c0,0-8.01,13.62-74.46,13.62s-88.86-7.21-117.7-25.23c-28.82-18.01-52.83-46.83-96.07-50.44
		c-43.23-3.6-108.07,10.82-142.9,36.03c-34.84,25.22-51.63,46.84-51.63,68.46c0,21.61,34.82,20.42,46.82,21.61
		c12.02,1.21,38.42,16.81,84.07,8.41c45.64-8.41,86.47-25.22,98.48-32.43c12-7.21,21.61-16.81,39.62-14.41
		c18.01,2.41,60.06,13.21,92.47,13.21c32.43,0,105.68-13.21,121.3-8.41c15.6,4.8,27.62,6,34.82,4.8
		C1311.86,635.3,1314.27,584.07,1269.84,601.28z"/>
	<g>
		<path class="st0" d="M955.21,544.04c-18.03-18.01-122.49-126.1-152.52-151.31c-12.41-10.44-38.36-32.34-65.47-55.48
			c0.06,10.4,3.42,23.6,10.63,30.26c10.4,9.61,76.06,86.47,85.66,105.67c9.6,19.22,23.21,47.25,5.61,59.25
			c-7.36,5.02-17.62,8.48-27.11,10.82c20.03,16.14,21.89,35.61,21.89,35.61s79.66,35.22,124.5,4.8
			C969.33,576.26,973.22,562.05,955.21,544.04z"/>
		<path class="st1" d="M833.52,473.18c-9.61-19.21-75.26-96.07-85.66-105.67c-7.22-6.66-10.57-19.85-10.63-30.26
			c-38.47-32.84-79.29-68.16-87.05-76.62c-13.2-14.41-28.81-34.83-27.62-39.63c0,0-10.81,1.21-4.8,13.21
			c6.01,12.01,15.62,22.82,20.42,28.83c4.79,5.99-0.74,11.27-7.55,2.22c-5.4-7.2-27.27-37.05-27.27-37.05s-7.45,4.42-0.25,17.62
			c7.2,13.2,12.25,20.81,17.06,24.42c0,0-19.22-4.8-24.02-14.41c0,0-7.2,15.6,2.4,27.63c9.61,12,60.05,86.46,68.45,100.86
			c8.41,14.41,106.89,135.71,135.71,152.52c3.49,2.04,6.58,4.19,9.32,6.42c9.49-2.35,19.75-5.81,27.11-10.82
			C856.73,520.43,843.12,492.4,833.52,473.18z"/>
	</g>
	<g>
		<polygon class="st0" points="784.16,645.84 681.19,653.5 681.93,663.67 784.92,656.01 		"/>
		<polygon class="st0" points="687.18,655.77 584.78,659.08 585.03,666.89 687.42,663.59 		"/>
		<path class="st0" d="M697.13,657.43c0.36,4.79-4.58,9.07-11.03,9.56c-6.44,0.47-11.95-3.03-12.32-7.82
			c-0.35-4.8,4.58-9.07,11.02-9.55C691.25,649.13,696.77,652.63,697.13,657.43z"/>
		<path class="st0" d="M592.54,665.73c0,0-21.63,1.2-39.03,1.2c-17.42,0-22.82-21.01-22.82-21.01s8.41-1.8,13.82-1.2
			c5.4,0.59,9.59,8.4,19.2,8.4s17.42,0.6,17.42,0.6s9.61,0,12,9.01"/>
		<path class="st2" d="M805.92,649.35c1.01,13.57-16.18,15.65-30.08,16.68c-13.89,1.04-19.64-5-20.23-12.94
			c-0.59-7.94,4.21-14.78,18.09-15.81C787.6,636.26,804.79,634.18,805.92,649.35z"/>
	</g>
	<g>
		<polygon class="st0" points="792.1,626.18 689.11,633.84 689.85,644.02 792.84,636.36 		"/>
		<polygon class="st0" points="695.1,636.12 592.71,639.44 592.95,647.23 695.34,643.93 		"/>
		<path class="st0" d="M705.05,637.78c0.36,4.79-4.58,9.07-11.03,9.55c-6.44,0.48-11.95-3.03-12.32-7.81
			c-0.35-4.8,4.58-9.07,11.02-9.56C699.16,629.48,704.69,632.98,705.05,637.78z"/>
		<path class="st0" d="M600.46,646.07c0,0-21.63,1.21-39.03,1.21c-17.42,0-22.82-21.02-22.82-21.02s8.41-1.79,13.82-1.2
			c5.4,0.6,9.59,8.41,19.2,8.41s17.42,0.6,17.42,0.6s9.61,0,12,9"/>
		<path class="st2" d="M813.83,629.69c1.01,13.57-16.18,15.65-30.08,16.68c-13.89,1.03-19.64-5-20.23-12.94
			c-0.59-7.94,4.21-14.77,18.09-15.8C795.51,616.61,812.7,614.53,813.83,629.69z"/>
	</g>
	<path class="st0" d="M1304.25,599.68c0-3.54,2.87-6.42,6.42-6.42c3.52,0,6.39,2.87,6.39,6.42c0,3.53-2.87,6.39-6.39,6.39
		C1307.13,606.08,1304.25,603.21,1304.25,599.68z"/>
</g>
<g>
	<path class="st3" d="M1147.95,613.06c-3.95-0.38-7.7-0.84-11.23-1.34c-2.84-2.41-6.06-4.02-9.81-4.87
		c-5.56-1.26-11.69-1.8-18.25-1.69c-59.87,0.92-152.9,54.51-153.94,55.08l-3.87-6.63c3.95-2.26,81.91-47.07,142.55-54.93
		c12.8-1.69,24.84-1.69,35.23,0.69C1136.64,601.22,1143.16,605.82,1147.95,613.06z"/>
	<path class="st3" d="M1152.28,713.61l-7.47-1.72c0.12-0.5,9.24-40.94,4.64-71.76c2.34-0.04,4.94-0.12,7.67-0.27
		C1161.71,671.94,1152.78,711.46,1152.28,713.61z"/>
</g>
<g>
	<path class="st4" d="M1101.07,858.77l-197.09-68.42c-7.14-2.48-10.92-10.28-8.44-17.42l41.47-119.47
		c2.48-7.14,10.28-10.92,17.42-8.44l197.09,68.42c7.14,2.48,10.92,10.28,8.44,17.42l-41.47,119.47
		C1116.01,857.47,1108.21,861.25,1101.07,858.77z"/>
	<g>
		
			<rect x="954.63" y="727.14" transform="matrix(0.9447 0.328 -0.328 0.9447 299.113 -287.5858)" class="st5" width="95.14" height="31.76"/>
		<polygon class="st5" points="1098.25,776.37 1053.78,724.95 1031.49,789.17 		"/>
	</g>
</g>
</svg>
