<?xml version="1.0" encoding="utf-8"?>
<!-- Generator: Adobe Illustrator 24.0.2, SVG Export Plug-In . SVG Version: 6.00 Build 0)  -->
<svg version="1.1" id="Layer_1" xmlns="http://www.w3.org/2000/svg" xmlns:xlink="http://www.w3.org/1999/xlink" x="0px" y="0px"
	 viewBox="0 0 197 68" style="enable-background:new 0 0 197 68;" xml:space="preserve">
<style type="text/css">
	.st0{opacity:0.4;fill:#1A1A1A;}
	.st1{fill:#DD0000;}
	.st2{fill:#23212B;}
	.st3{fill:url(#SVGID_1_);}
	.st4{fill:#A80000;}
	.st5{fill:#2C323E;}
	.st6{fill:#EBF1FF;}
</style>
<g id="car_1_">
	<ellipse class="st0" cx="92.47" cy="56.08" rx="88.25" ry="6.37"/>
	<g>
		<g>
			<path class="st1" d="M90.24,12.81c-9.49-2.28-32.56-1.02-47.92,4.51s-17.2,5.94-17.2,5.94L9.35,23.87L8.53,25.3l0.61,2.87
				c0,0-1.84,1.84-2.25,4.3s0.2,9.63,1.23,13.52s3.69,5.53,6.14,6.35c2.46,0.82,9.63,1.43,9.63,1.43s132.91,0.2,136.59,0.61
				c3.69,0.41,10.85-1.23,12.49-2.46c0,0-0.82-3.48-0.2-6.76s2.25-4.71-1.84-8.4c-4.1-3.69-9.42-7.17-22.12-9.22
				c-12.7-2.05-29.08-3.89-29.08-3.89S95.36,14.04,90.24,12.81z"/>
			<path class="st2" d="M88.2,15.06c-3.26-0.87-16.18-0.82-23.76-0.2c-7.58,0.61-11.67,2.05-11.67,2.05v4.91c0,0,4.3,2.87,7.99,3.28
				c3.69,0.41,51.81,2.05,51.81,2.05S99.66,18.13,88.2,15.06z"/>
			<path class="st2" d="M119.66,23.64c-2.14,0.31-4.75,0.52-6.89,0.23c-4.5-0.61-13.93-6.35-16.99-7.99
				c-1.25-0.67-1.96-1.43-2.36-2.11"/>
			
				<linearGradient id="SVGID_1_" gradientUnits="userSpaceOnUse" x1="380.3112" y1="36.8929" x2="392.1744" y2="36.8929" gradientTransform="matrix(-1 0 0 1 546.988 0)">
				<stop  offset="0" style="stop-color:#EBEBEB"/>
				<stop  offset="1" style="stop-color:#FFFFFF"/>
			</linearGradient>
			<path class="st3" d="M154.98,32.71c-0.28-0.13-0.17-0.55,0.13-0.52c2.35,0.22,6.74,0.76,9.06,1.92c1.28,0.64,2.27,1.72,2.46,3.17
				c0.2,1.57-0.27,3.03-1.29,4.23c-0.14,0.17-0.42,0.1-0.47-0.11c-0.15-0.59-0.31-1.17-0.48-1.75c-0.27-0.91-0.48-1.84-1.24-2.49
				c-1.01-0.86-2.26-1.48-3.42-2.13c-0.82-0.46-1.66-0.95-2.52-1.33L154.98,32.71z"/>
			<path class="st4" d="M108.19,28.12c0,0-0.45-3.4-1.61-4.2s-4.11-0.63-4.92-0.63s-1.07,0.09-0.89,1.43
				c0.18,1.34-0.18,2.77,1.52,3.22C103.98,28.39,108.19,28.12,108.19,28.12z"/>
			<g>
				<path class="st4" d="M61.2,40.89l-4.47-0.09c0,0,0.09,0.72,0.54,1.34c0.45,0.63,7.7,7.42,10.03,7.87s7.42,0,7.42,0v-0.54
					c0,0-3.77-0.48-5.47-1.19c-1.7-0.72-4.81-3.1-6.24-4.44C61.56,42.5,61.2,40.89,61.2,40.89z"/>
				<path class="st4" d="M131.61,50.96c0,0-60.52-0.76-62.62-0.76s0-1.14,0-1.14l62.85,0.76L131.61,50.96z"/>
			</g>
		</g>
		<g>
			<circle class="st5" cx="144.12" cy="47.61" r="13.93"/>
			<circle class="st2" cx="144.12" cy="47.61" r="10"/>
			<g>
				<circle class="st6" cx="144.12" cy="47.61" r="2.21"/>
				<path class="st6" d="M155.17,47.17c-0.1-2.72-1.2-5.2-2.93-7.07c-0.2-0.21-0.41-0.42-0.62-0.61c-1.87-1.74-4.34-2.83-7.07-2.93
					c-0.14,0-0.29-0.01-0.44-0.01s-0.29,0-0.44,0.01c-2.73,0.1-5.2,1.2-7.07,2.93c-0.21,0.2-0.42,0.4-0.61,0.61
					c-1.73,1.87-2.83,4.34-2.93,7.07c0,0.14-0.01,0.29-0.01,0.44c0,0.14,0,0.29,0.01,0.44c0.1,2.73,1.2,5.2,2.93,7.07
					c0.2,0.21,0.4,0.42,0.61,0.61c1.87,1.73,4.34,2.83,7.07,2.93c0.14,0,0.29,0.01,0.44,0.01s0.29,0,0.44-0.01
					c2.72-0.1,5.2-1.19,7.07-2.93c0.21-0.2,0.42-0.4,0.62-0.61c1.73-1.87,2.83-4.34,2.93-7.07c0-0.14,0.01-0.29,0.01-0.44
					C155.18,47.46,155.18,47.32,155.17,47.17z M150.91,53.78c-0.2,0.21-0.4,0.42-0.61,0.62h0c-1.53,1.39-3.53,2.27-5.73,2.37
					c-0.14,0.01-0.29,0.01-0.44,0.01c-0.15,0-0.29,0-0.44-0.01c-2.21-0.1-4.2-0.98-5.73-2.37c-0.21-0.2-0.42-0.4-0.61-0.61
					c-1.39-1.53-2.27-3.53-2.37-5.74c-0.01-0.14-0.01-0.29-0.01-0.44c0-0.15,0-0.29,0.01-0.44c0.1-2.21,0.99-4.2,2.37-5.73
					c0.2-0.21,0.4-0.42,0.61-0.61c1.53-1.39,3.53-2.27,5.73-2.37c0.14-0.01,0.29-0.01,0.44-0.01c0.15,0,0.29,0,0.44,0.01
					c2.21,0.1,4.21,0.99,5.74,2.37c0.21,0.2,0.42,0.41,0.61,0.62c1.39,1.53,2.27,3.53,2.37,5.73c0.01,0.14,0.01,0.29,0.01,0.44
					c0,0.15,0,0.29-0.01,0.44C153.18,50.25,152.3,52.25,150.91,53.78z"/>
				<path class="st6" d="M136,55.12l1.33-1.33l4.94-4.95l0.79-0.79h-1.11h-6.99h-1.89v-0.87h1.89h6.99h1.11l-0.78-0.78l-4.95-4.95
					L136,40.1l0.61-0.61l1.33,1.33l4.95,4.95l0.78,0.78v-1.11v-6.99v-1.89c0.14,0,0.29-0.01,0.44-0.01c0.14,0,0.29,0,0.44,0.01v1.89
					v6.99v1.11l0.79-0.79l4.95-4.95l1.33-1.33l0.62,0.61l-1.33,1.33l-4.95,4.95l-0.78,0.78h1.11h7h1.89v0.87h-1.89h-7h-1.11
					l0.78,0.78l4.95,4.95l1.33,1.33l-0.62,0.61l-1.33-1.33h0l-4.94-4.95l-0.79-0.79v1.11v6.99v1.89h-0.87v-1.89v-6.99v-1.11
					l-0.78,0.78l-4.95,4.95l-1.33,1.33L136,55.12z"/>
			</g>
		</g>
		<g>
			<circle class="st5" cx="38.42" cy="47.61" r="13.93"/>
			<circle class="st2" cx="38.42" cy="47.61" r="10"/>
			<g>
				<circle class="st6" cx="38.42" cy="47.61" r="2.21"/>
				<path class="st6" d="M49.47,47.17c-0.1-2.72-1.2-5.2-2.93-7.07c-0.2-0.21-0.41-0.42-0.62-0.61c-1.87-1.74-4.34-2.83-7.07-2.93
					c-0.14,0-0.29-0.01-0.44-0.01s-0.29,0-0.44,0.01c-2.73,0.1-5.2,1.2-7.07,2.93c-0.21,0.2-0.42,0.4-0.61,0.61
					c-1.73,1.87-2.83,4.34-2.93,7.07c0,0.14-0.01,0.29-0.01,0.44c0,0.14,0,0.29,0.01,0.44c0.1,2.73,1.2,5.2,2.93,7.07
					c0.2,0.21,0.4,0.42,0.61,0.61c1.87,1.73,4.34,2.83,7.07,2.93c0.14,0,0.29,0.01,0.44,0.01s0.29,0,0.44-0.01
					c2.72-0.1,5.2-1.19,7.07-2.93c0.21-0.2,0.42-0.4,0.62-0.61c1.73-1.87,2.83-4.34,2.93-7.07c0-0.14,0.01-0.29,0.01-0.44
					C49.48,47.46,49.48,47.32,49.47,47.17z M45.21,53.78c-0.2,0.21-0.4,0.42-0.61,0.62h0c-1.53,1.39-3.53,2.27-5.73,2.37
					c-0.14,0.01-0.29,0.01-0.44,0.01c-0.15,0-0.29,0-0.44-0.01c-2.21-0.1-4.2-0.98-5.73-2.37c-0.21-0.2-0.42-0.4-0.61-0.61
					c-1.39-1.53-2.27-3.53-2.37-5.74c-0.01-0.14-0.01-0.29-0.01-0.44c0-0.15,0-0.29,0.01-0.44c0.1-2.21,0.99-4.2,2.37-5.73
					c0.2-0.21,0.4-0.42,0.61-0.61c1.53-1.39,3.53-2.27,5.73-2.37c0.14-0.01,0.29-0.01,0.44-0.01c0.15,0,0.29,0,0.44,0.01
					c2.21,0.1,4.21,0.99,5.74,2.37c0.21,0.2,0.42,0.41,0.61,0.62c1.39,1.53,2.27,3.53,2.37,5.73c0.01,0.14,0.01,0.29,0.01,0.44
					c0,0.15,0,0.29-0.01,0.44C47.48,50.25,46.6,52.25,45.21,53.78z"/>
				<path class="st6" d="M30.3,55.12l1.33-1.33l4.94-4.95l0.79-0.79h-1.11h-6.99h-1.89v-0.87h1.89h6.99h1.11l-0.78-0.78l-4.95-4.95
					L30.3,40.1l0.61-0.61l1.33,1.33l4.95,4.95l0.78,0.78v-1.11v-6.99v-1.89c0.14,0,0.29-0.01,0.44-0.01s0.29,0,0.44,0.01v1.89v6.99
					v1.11l0.79-0.79l4.95-4.95l1.33-1.33l0.62,0.61l-1.33,1.33l-4.95,4.95l-0.78,0.78h1.11h7h1.89v0.87h-1.89h-7h-1.11l0.78,0.78
					l4.95,4.95l1.33,1.33l-0.62,0.61l-1.33-1.33h0l-4.94-4.95l-0.79-0.79v1.11v6.99v1.89h-0.87v-1.89v-6.99v-1.11l-0.78,0.78
					l-4.95,4.95l-1.33,1.33L30.3,55.12z"/>
			</g>
		</g>
	</g>
</g>
</svg>
