<?xml version="1.0" encoding="utf-8"?>
<!-- Generator: Adobe Illustrator 24.0.2, SVG Export Plug-In . SVG Version: 6.00 Build 0)  -->
<svg version="1.1" xmlns="http://www.w3.org/2000/svg" xmlns:xlink="http://www.w3.org/1999/xlink" x="0px" y="0px"
	 viewBox="0 0 228 102" style="enable-background:new 0 0 228 102;" xml:space="preserve">
<style type="text/css">
	.st0{display:none;}
	.st1{display:inline;}
	.st2{fill:#00FF00;}
	.st3{opacity:0.75;}
	.st4{fill:#ECFFEE;}
</style>
<g id="Layer_2" class="st0">
	<g class="st1">
		<rect x="-1" class="st2" width="234" height="101"/>
	</g>
</g>
<g id="Layer_1">
	<g class="st3">
		<path class="st4" d="M222.13,91.58c0.08-0.65,0.2-1.29,0.2-1.96c0-8.44-6.84-15.28-15.28-15.28c-4.86,0-9.14,2.31-11.94,5.85
			c-2.04-8.42-9.58-14.7-18.63-14.7c-3.67,0-7.06,1.08-9.97,2.86c-4.15-9.35-13.48-15.89-24.37-15.89c-4.87,0-9.37,1.4-13.31,3.68
			c0.11-1.29,0.2-2.58,0.2-3.9c0-24.77-20.08-44.84-44.84-44.84c-24.77,0-44.84,20.08-44.84,44.84c0,1.8,0.14,3.57,0.34,5.32
			c-1.43-0.24-2.88-0.44-4.38-0.44c-14.74,0-26.69,11.95-26.69,26.69c0,2.72,0.53,5.3,1.28,7.77H222.13z"/>
	</g>
</g>
</svg>
