<?xml version="1.0" encoding="utf-8"?>
<!-- Generator: Adobe Illustrator 24.0.2, SVG Export Plug-In . SVG Version: 6.00 Build 0)  -->
<svg version="1.1" xmlns="http://www.w3.org/2000/svg" xmlns:xlink="http://www.w3.org/1999/xlink" x="0px" y="0px"
	 viewBox="0 0 1920 1191.93" style="enable-background:new 0 0 1920 1191.93;" xml:space="preserve">
<style type="text/css">
	.st0{display:none;}
	.st1{display:inline;fill:#FAFDC6;}
	.st2{fill:url(#SVGID_1_);}
	.st3{fill:#6FC250;}
	.st4{fill:#FFFFFF;}
	.st5{fill:url(#SVGID_2_);}
	.st6{fill:#422918;}
	.st7{fill:#66AC77;}
	.st8{fill:#00853B;}
	.st9{fill:#A7C250;}
	.st10{fill:#74A82D;}
	.st11{fill:#CCD695;}
	.st12{fill:#FFF7E7;}
	.st13{fill:#AD3218;}
	.st14{fill:#0292C2;}
	.st15{clip-path:url(#SVGID_4_);}
	.st16{fill:#6B594E;}
	.st17{fill:#938682;}
	.st18{fill:#ED7157;}
	.st19{fill:#A7A464;}
	.st20{fill:#1D1D1B;}
	.st21{fill:#7E4E24;}
	.st22{fill:#12100B;}
	.st23{display:inline;}
	.st24{opacity:0.4;fill:#1A1A1A;}
	.st25{fill:#DD0000;}
	.st26{fill:#23212B;}
	.st27{fill:url(#SVGID_5_);}
	.st28{fill:#A80000;}
	.st29{fill:#2C323E;}
	.st30{fill:#EBF1FF;}
	.st31{fill:url(#SVGID_6_);}
	.st32{fill:url(#SVGID_7_);}
	.st33{fill:url(#SVGID_8_);}
	.st34{fill:#5F210B;}
	.st35{font-family:'MyriadPro-Bold';}
	.st36{font-size:88.1052px;}
	.st37{fill:none;}
	.st38{font-size:23px;}
</style>
<g id="Layer_1">
</g>
<g id="Layer_2" class="st0">
	<rect x="-1.5" class="st1" width="1921" height="1194.43"/>
</g>
<g id="ground">
	<linearGradient id="SVGID_1_" gradientUnits="userSpaceOnUse" x1="959.9863" y1="921.0739" x2="959.9863" y2="1187.379">
		<stop  offset="0" style="stop-color:#A0E6D7"/>
		<stop  offset="0.3649" style="stop-color:#68B743"/>
	</linearGradient>
	<rect x="-7.19" y="916.44" class="st2" width="1934.35" height="286.12"/>
	<g>
		<g>
			<g>
				<g>
					<polygon class="st3" points="1858.71,1054.72 1847.39,1054.72 1847.39,1042.86 1853.24,1045.3 1858.71,1042.86 					"/>
					<polygon class="st3" points="1831.66,1028.65 1820.33,1028.65 1820.33,1016.79 1826.19,1019.23 1831.66,1016.79 					"/>
					<polygon class="st3" points="1885.77,1028.65 1874.44,1028.65 1874.44,1016.79 1880.3,1019.23 1885.77,1016.79 					"/>
					<polygon class="st3" points="1831.66,1080.79 1820.33,1080.79 1820.33,1068.94 1826.19,1071.37 1831.66,1068.94 					"/>
				</g>
			</g>
			<g>
				<g>
					<polygon class="st3" points="1831.66,1080.79 1820.33,1080.79 1820.33,1068.94 1826.19,1071.37 1831.66,1068.94 					"/>
					<polygon class="st3" points="1831.66,1132.93 1820.33,1132.93 1820.33,1121.08 1826.19,1123.51 1831.66,1121.08 					"/>
				</g>
			</g>
			<g>
				<g>
					<polygon class="st3" points="1831.66,1132.93 1820.33,1132.93 1820.33,1121.08 1826.19,1123.51 1831.66,1121.08 					"/>
				</g>
			</g>
			<g>
				<g>
					<polygon class="st3" points="1804.6,1054.72 1793.28,1054.72 1793.28,1042.86 1799.13,1045.3 1804.6,1042.86 					"/>
					<polygon class="st3" points="1777.55,1028.65 1766.22,1028.65 1766.22,1016.79 1772.08,1019.23 1777.55,1016.79 					"/>
					<polygon class="st3" points="1831.66,1028.65 1820.33,1028.65 1820.33,1016.79 1826.19,1019.23 1831.66,1016.79 					"/>
					<polygon class="st3" points="1777.55,1080.79 1766.22,1080.79 1766.22,1068.94 1772.08,1071.37 1777.55,1068.94 					"/>
					<polygon class="st3" points="1831.66,1080.79 1820.33,1080.79 1820.33,1068.94 1826.19,1071.37 1831.66,1068.94 					"/>
				</g>
			</g>
			<g>
				<g>
					<polygon class="st3" points="1804.6,1106.86 1793.28,1106.86 1793.28,1095.01 1799.13,1097.44 1804.6,1095.01 					"/>
					<polygon class="st3" points="1777.55,1080.79 1766.22,1080.79 1766.22,1068.94 1772.08,1071.37 1777.55,1068.94 					"/>
					<polygon class="st3" points="1831.66,1080.79 1820.33,1080.79 1820.33,1068.94 1826.19,1071.37 1831.66,1068.94 					"/>
					<polygon class="st3" points="1777.55,1132.93 1766.22,1132.93 1766.22,1121.08 1772.08,1123.51 1777.55,1121.08 					"/>
					<polygon class="st3" points="1831.66,1132.93 1820.33,1132.93 1820.33,1121.08 1826.19,1123.51 1831.66,1121.08 					"/>
				</g>
			</g>
			<g>
				<g>
					<polygon class="st3" points="1804.6,1159 1793.28,1159 1793.28,1147.15 1799.13,1149.58 1804.6,1147.15 					"/>
					<polygon class="st3" points="1777.55,1132.93 1766.22,1132.93 1766.22,1121.08 1772.08,1123.51 1777.55,1121.08 					"/>
					<polygon class="st3" points="1831.66,1132.93 1820.33,1132.93 1820.33,1121.08 1826.19,1123.51 1831.66,1121.08 					"/>
				</g>
			</g>
			<g>
				<g>
					<polygon class="st3" points="1750.49,1054.72 1739.17,1054.72 1739.17,1042.86 1745.02,1045.3 1750.49,1042.86 					"/>
					<polygon class="st3" points="1723.44,1028.65 1712.11,1028.65 1712.11,1016.79 1717.97,1019.23 1723.44,1016.79 					"/>
					<polygon class="st3" points="1777.55,1028.65 1766.22,1028.65 1766.22,1016.79 1772.08,1019.23 1777.55,1016.79 					"/>
					<polygon class="st3" points="1723.44,1080.79 1712.11,1080.79 1712.11,1068.94 1717.97,1071.37 1723.44,1068.94 					"/>
					<polygon class="st3" points="1777.55,1080.79 1766.22,1080.79 1766.22,1068.94 1772.08,1071.37 1777.55,1068.94 					"/>
				</g>
			</g>
			<g>
				<g>
					<polygon class="st3" points="1750.49,1106.86 1739.17,1106.86 1739.17,1095.01 1745.02,1097.44 1750.49,1095.01 					"/>
					<polygon class="st3" points="1723.44,1080.79 1712.11,1080.79 1712.11,1068.94 1717.97,1071.37 1723.44,1068.94 					"/>
					<polygon class="st3" points="1777.55,1080.79 1766.22,1080.79 1766.22,1068.94 1772.08,1071.37 1777.55,1068.94 					"/>
					<polygon class="st3" points="1723.44,1132.93 1712.11,1132.93 1712.11,1121.08 1717.97,1123.51 1723.44,1121.08 					"/>
					<polygon class="st3" points="1777.55,1132.93 1766.22,1132.93 1766.22,1121.08 1772.08,1123.51 1777.55,1121.08 					"/>
				</g>
			</g>
			<g>
				<g>
					<polygon class="st3" points="1750.49,1159 1739.17,1159 1739.17,1147.15 1745.02,1149.58 1750.49,1147.15 					"/>
					<polygon class="st3" points="1723.44,1132.93 1712.11,1132.93 1712.11,1121.08 1717.97,1123.51 1723.44,1121.08 					"/>
					<polygon class="st3" points="1777.55,1132.93 1766.22,1132.93 1766.22,1121.08 1772.08,1123.51 1777.55,1121.08 					"/>
				</g>
			</g>
			<g>
				<g>
					<polygon class="st3" points="1696.39,1054.72 1685.06,1054.72 1685.06,1042.86 1690.91,1045.3 1696.39,1042.86 					"/>
					<polygon class="st3" points="1669.33,1028.65 1658.01,1028.65 1658.01,1016.79 1663.86,1019.23 1669.33,1016.79 					"/>
					<polygon class="st3" points="1723.44,1028.65 1712.11,1028.65 1712.11,1016.79 1717.97,1019.23 1723.44,1016.79 					"/>
					<polygon class="st3" points="1669.33,1080.79 1658.01,1080.79 1658.01,1068.94 1663.86,1071.37 1669.33,1068.94 					"/>
					<polygon class="st3" points="1723.44,1080.79 1712.11,1080.79 1712.11,1068.94 1717.97,1071.37 1723.44,1068.94 					"/>
				</g>
			</g>
			<g>
				<g>
					<polygon class="st3" points="1696.39,1106.86 1685.06,1106.86 1685.06,1095.01 1690.91,1097.44 1696.39,1095.01 					"/>
					<polygon class="st3" points="1669.33,1080.79 1658.01,1080.79 1658.01,1068.94 1663.86,1071.37 1669.33,1068.94 					"/>
					<polygon class="st3" points="1723.44,1080.79 1712.11,1080.79 1712.11,1068.94 1717.97,1071.37 1723.44,1068.94 					"/>
					<polygon class="st3" points="1669.33,1132.93 1658.01,1132.93 1658.01,1121.08 1663.86,1123.51 1669.33,1121.08 					"/>
					<polygon class="st3" points="1723.44,1132.93 1712.11,1132.93 1712.11,1121.08 1717.97,1123.51 1723.44,1121.08 					"/>
				</g>
			</g>
			<g>
				<g>
					<polygon class="st3" points="1696.39,1159 1685.06,1159 1685.06,1147.15 1690.91,1149.58 1696.39,1147.15 					"/>
					<polygon class="st3" points="1669.33,1132.93 1658.01,1132.93 1658.01,1121.08 1663.86,1123.51 1669.33,1121.08 					"/>
					<polygon class="st3" points="1723.44,1132.93 1712.11,1132.93 1712.11,1121.08 1717.97,1123.51 1723.44,1121.08 					"/>
				</g>
			</g>
			<g>
				<g>
					<polygon class="st3" points="1642.28,1054.72 1630.95,1054.72 1630.95,1042.86 1636.8,1045.3 1642.28,1042.86 					"/>
					<polygon class="st3" points="1615.22,1028.65 1603.9,1028.65 1603.9,1016.79 1609.75,1019.23 1615.22,1016.79 					"/>
					<polygon class="st3" points="1669.33,1028.65 1658.01,1028.65 1658.01,1016.79 1663.86,1019.23 1669.33,1016.79 					"/>
					<polygon class="st3" points="1615.22,1080.79 1603.9,1080.79 1603.9,1068.94 1609.75,1071.37 1615.22,1068.94 					"/>
					<polygon class="st3" points="1669.33,1080.79 1658.01,1080.79 1658.01,1068.94 1663.86,1071.37 1669.33,1068.94 					"/>
				</g>
			</g>
			<g>
				<g>
					<polygon class="st3" points="1642.28,1106.86 1630.95,1106.86 1630.95,1095.01 1636.8,1097.44 1642.28,1095.01 					"/>
					<polygon class="st3" points="1615.22,1080.79 1603.9,1080.79 1603.9,1068.94 1609.75,1071.37 1615.22,1068.94 					"/>
					<polygon class="st3" points="1669.33,1080.79 1658.01,1080.79 1658.01,1068.94 1663.86,1071.37 1669.33,1068.94 					"/>
					<polygon class="st3" points="1615.22,1132.93 1603.9,1132.93 1603.9,1121.08 1609.75,1123.51 1615.22,1121.08 					"/>
					<polygon class="st3" points="1669.33,1132.93 1658.01,1132.93 1658.01,1121.08 1663.86,1123.51 1669.33,1121.08 					"/>
				</g>
			</g>
			<g>
				<g>
					<polygon class="st3" points="1642.28,1159 1630.95,1159 1630.95,1147.15 1636.8,1149.58 1642.28,1147.15 					"/>
					<polygon class="st3" points="1615.22,1132.93 1603.9,1132.93 1603.9,1121.08 1609.75,1123.51 1615.22,1121.08 					"/>
					<polygon class="st3" points="1669.33,1132.93 1658.01,1132.93 1658.01,1121.08 1663.86,1123.51 1669.33,1121.08 					"/>
				</g>
			</g>
			<g>
				<g>
					<polygon class="st3" points="1615.22,1028.65 1603.9,1028.65 1603.9,1016.79 1609.75,1019.23 1615.22,1016.79 					"/>
					<polygon class="st3" points="1615.22,1080.79 1603.9,1080.79 1603.9,1068.94 1609.75,1071.37 1615.22,1068.94 					"/>
				</g>
			</g>
			<g>
				<g>
					<polygon class="st3" points="1615.22,1080.79 1603.9,1080.79 1603.9,1068.94 1609.75,1071.37 1615.22,1068.94 					"/>
					<polygon class="st3" points="1615.22,1132.93 1603.9,1132.93 1603.9,1121.08 1609.75,1123.51 1615.22,1121.08 					"/>
				</g>
			</g>
			<g>
				<g>
					<polygon class="st3" points="1615.22,1132.93 1603.9,1132.93 1603.9,1121.08 1609.75,1123.51 1615.22,1121.08 					"/>
				</g>
			</g>
		</g>
		<g>
			<g>
				<g>
					<polygon class="st3" points="1588.47,1054.72 1577.15,1054.72 1577.15,1042.86 1583,1045.3 1588.47,1042.86 					"/>
					<polygon class="st3" points="1561.42,1028.65 1550.09,1028.65 1550.09,1016.79 1555.95,1019.23 1561.42,1016.79 					"/>
					<polygon class="st3" points="1615.53,1028.65 1604.2,1028.65 1604.2,1016.79 1610.05,1019.23 1615.53,1016.79 					"/>
					<polygon class="st3" points="1561.42,1080.79 1550.09,1080.79 1550.09,1068.94 1555.95,1071.37 1561.42,1068.94 					"/>
					<polygon class="st3" points="1615.53,1080.79 1604.2,1080.79 1604.2,1068.94 1610.05,1071.37 1615.53,1068.94 					"/>
				</g>
			</g>
			<g>
				<g>
					<polygon class="st3" points="1588.47,1106.86 1577.15,1106.86 1577.15,1095.01 1583,1097.44 1588.47,1095.01 					"/>
					<polygon class="st3" points="1561.42,1080.79 1550.09,1080.79 1550.09,1068.94 1555.95,1071.37 1561.42,1068.94 					"/>
					<polygon class="st3" points="1615.53,1080.79 1604.2,1080.79 1604.2,1068.94 1610.05,1071.37 1615.53,1068.94 					"/>
					<polygon class="st3" points="1561.42,1132.93 1550.09,1132.93 1550.09,1121.08 1555.95,1123.51 1561.42,1121.08 					"/>
					<polygon class="st3" points="1615.53,1132.93 1604.2,1132.93 1604.2,1121.08 1610.05,1123.51 1615.53,1121.08 					"/>
				</g>
			</g>
			<g>
				<g>
					<polygon class="st3" points="1588.47,1159 1577.15,1159 1577.15,1147.15 1583,1149.58 1588.47,1147.15 					"/>
					<polygon class="st3" points="1561.42,1132.93 1550.09,1132.93 1550.09,1121.08 1555.95,1123.51 1561.42,1121.08 					"/>
					<polygon class="st3" points="1615.53,1132.93 1604.2,1132.93 1604.2,1121.08 1610.05,1123.51 1615.53,1121.08 					"/>
				</g>
			</g>
			<g>
				<g>
					<polygon class="st3" points="1534.36,1054.72 1523.04,1054.72 1523.04,1042.86 1528.89,1045.3 1534.36,1042.86 					"/>
					<polygon class="st3" points="1507.31,1028.65 1495.98,1028.65 1495.98,1016.79 1501.84,1019.23 1507.31,1016.79 					"/>
					<polygon class="st3" points="1561.42,1028.65 1550.09,1028.65 1550.09,1016.79 1555.95,1019.23 1561.42,1016.79 					"/>
					<polygon class="st3" points="1507.31,1080.79 1495.98,1080.79 1495.98,1068.94 1501.84,1071.37 1507.31,1068.94 					"/>
					<polygon class="st3" points="1561.42,1080.79 1550.09,1080.79 1550.09,1068.94 1555.95,1071.37 1561.42,1068.94 					"/>
				</g>
			</g>
			<g>
				<g>
					<polygon class="st3" points="1534.36,1106.86 1523.04,1106.86 1523.04,1095.01 1528.89,1097.44 1534.36,1095.01 					"/>
					<polygon class="st3" points="1507.31,1080.79 1495.98,1080.79 1495.98,1068.94 1501.84,1071.37 1507.31,1068.94 					"/>
					<polygon class="st3" points="1561.42,1080.79 1550.09,1080.79 1550.09,1068.94 1555.95,1071.37 1561.42,1068.94 					"/>
					<polygon class="st3" points="1507.31,1132.93 1495.98,1132.93 1495.98,1121.08 1501.84,1123.51 1507.31,1121.08 					"/>
					<polygon class="st3" points="1561.42,1132.93 1550.09,1132.93 1550.09,1121.08 1555.95,1123.51 1561.42,1121.08 					"/>
				</g>
			</g>
			<g>
				<g>
					<polygon class="st3" points="1534.36,1159 1523.04,1159 1523.04,1147.15 1528.89,1149.58 1534.36,1147.15 					"/>
					<polygon class="st3" points="1507.31,1132.93 1495.98,1132.93 1495.98,1121.08 1501.84,1123.51 1507.31,1121.08 					"/>
					<polygon class="st3" points="1561.42,1132.93 1550.09,1132.93 1550.09,1121.08 1555.95,1123.51 1561.42,1121.08 					"/>
				</g>
			</g>
			<g>
				<g>
					<polygon class="st3" points="1480.25,1054.72 1468.93,1054.72 1468.93,1042.86 1474.78,1045.3 1480.25,1042.86 					"/>
					<polygon class="st3" points="1453.2,1028.65 1441.87,1028.65 1441.87,1016.79 1447.73,1019.23 1453.2,1016.79 					"/>
					<polygon class="st3" points="1507.31,1028.65 1495.98,1028.65 1495.98,1016.79 1501.84,1019.23 1507.31,1016.79 					"/>
					<polygon class="st3" points="1453.2,1080.79 1441.87,1080.79 1441.87,1068.94 1447.73,1071.37 1453.2,1068.94 					"/>
					<polygon class="st3" points="1507.31,1080.79 1495.98,1080.79 1495.98,1068.94 1501.84,1071.37 1507.31,1068.94 					"/>
				</g>
			</g>
			<g>
				<g>
					<polygon class="st3" points="1480.25,1106.86 1468.93,1106.86 1468.93,1095.01 1474.78,1097.44 1480.25,1095.01 					"/>
					<polygon class="st3" points="1453.2,1080.79 1441.87,1080.79 1441.87,1068.94 1447.73,1071.37 1453.2,1068.94 					"/>
					<polygon class="st3" points="1507.31,1080.79 1495.98,1080.79 1495.98,1068.94 1501.84,1071.37 1507.31,1068.94 					"/>
					<polygon class="st3" points="1453.2,1132.93 1441.87,1132.93 1441.87,1121.08 1447.73,1123.51 1453.2,1121.08 					"/>
					<polygon class="st3" points="1507.31,1132.93 1495.98,1132.93 1495.98,1121.08 1501.84,1123.51 1507.31,1121.08 					"/>
				</g>
			</g>
			<g>
				<g>
					<polygon class="st3" points="1480.25,1159 1468.93,1159 1468.93,1147.15 1474.78,1149.58 1480.25,1147.15 					"/>
					<polygon class="st3" points="1453.2,1132.93 1441.87,1132.93 1441.87,1121.08 1447.73,1123.51 1453.2,1121.08 					"/>
					<polygon class="st3" points="1507.31,1132.93 1495.98,1132.93 1495.98,1121.08 1501.84,1123.51 1507.31,1121.08 					"/>
				</g>
			</g>
			<g>
				<g>
					<polygon class="st3" points="1426.15,1054.72 1414.82,1054.72 1414.82,1042.86 1420.67,1045.3 1426.15,1042.86 					"/>
					<polygon class="st3" points="1399.09,1028.65 1387.76,1028.65 1387.76,1016.79 1393.62,1019.23 1399.09,1016.79 					"/>
					<polygon class="st3" points="1453.2,1028.65 1441.87,1028.65 1441.87,1016.79 1447.73,1019.23 1453.2,1016.79 					"/>
					<polygon class="st3" points="1399.09,1080.79 1387.76,1080.79 1387.76,1068.94 1393.62,1071.37 1399.09,1068.94 					"/>
					<polygon class="st3" points="1453.2,1080.79 1441.87,1080.79 1441.87,1068.94 1447.73,1071.37 1453.2,1068.94 					"/>
				</g>
			</g>
			<g>
				<g>
					<polygon class="st3" points="1426.15,1106.86 1414.82,1106.86 1414.82,1095.01 1420.67,1097.44 1426.15,1095.01 					"/>
					<polygon class="st3" points="1399.09,1080.79 1387.76,1080.79 1387.76,1068.94 1393.62,1071.37 1399.09,1068.94 					"/>
					<polygon class="st3" points="1453.2,1080.79 1441.87,1080.79 1441.87,1068.94 1447.73,1071.37 1453.2,1068.94 					"/>
					<polygon class="st3" points="1399.09,1132.93 1387.76,1132.93 1387.76,1121.08 1393.62,1123.51 1399.09,1121.08 					"/>
					<polygon class="st3" points="1453.2,1132.93 1441.87,1132.93 1441.87,1121.08 1447.73,1123.51 1453.2,1121.08 					"/>
				</g>
			</g>
			<g>
				<g>
					<polygon class="st3" points="1426.15,1159 1414.82,1159 1414.82,1147.15 1420.67,1149.58 1426.15,1147.15 					"/>
					<polygon class="st3" points="1399.09,1132.93 1387.76,1132.93 1387.76,1121.08 1393.62,1123.51 1399.09,1121.08 					"/>
					<polygon class="st3" points="1453.2,1132.93 1441.87,1132.93 1441.87,1121.08 1447.73,1123.51 1453.2,1121.08 					"/>
				</g>
			</g>
			<g>
				<g>
					<polygon class="st3" points="1372.04,1054.72 1360.71,1054.72 1360.71,1042.86 1366.56,1045.3 1372.04,1042.86 					"/>
					<polygon class="st3" points="1344.98,1028.65 1333.66,1028.65 1333.66,1016.79 1339.51,1019.23 1344.98,1016.79 					"/>
					<polygon class="st3" points="1399.09,1028.65 1387.76,1028.65 1387.76,1016.79 1393.62,1019.23 1399.09,1016.79 					"/>
					<polygon class="st3" points="1344.98,1080.79 1333.66,1080.79 1333.66,1068.94 1339.51,1071.37 1344.98,1068.94 					"/>
					<polygon class="st3" points="1399.09,1080.79 1387.76,1080.79 1387.76,1068.94 1393.62,1071.37 1399.09,1068.94 					"/>
				</g>
			</g>
			<g>
				<g>
					<polygon class="st3" points="1372.04,1106.86 1360.71,1106.86 1360.71,1095.01 1366.56,1097.44 1372.04,1095.01 					"/>
					<polygon class="st3" points="1344.98,1080.79 1333.66,1080.79 1333.66,1068.94 1339.51,1071.37 1344.98,1068.94 					"/>
					<polygon class="st3" points="1399.09,1080.79 1387.76,1080.79 1387.76,1068.94 1393.62,1071.37 1399.09,1068.94 					"/>
					<polygon class="st3" points="1344.98,1132.93 1333.66,1132.93 1333.66,1121.08 1339.51,1123.51 1344.98,1121.08 					"/>
					<polygon class="st3" points="1399.09,1132.93 1387.76,1132.93 1387.76,1121.08 1393.62,1123.51 1399.09,1121.08 					"/>
				</g>
			</g>
			<g>
				<g>
					<polygon class="st3" points="1372.04,1159 1360.71,1159 1360.71,1147.15 1366.56,1149.58 1372.04,1147.15 					"/>
					<polygon class="st3" points="1344.98,1132.93 1333.66,1132.93 1333.66,1121.08 1339.51,1123.51 1344.98,1121.08 					"/>
					<polygon class="st3" points="1399.09,1132.93 1387.76,1132.93 1387.76,1121.08 1393.62,1123.51 1399.09,1121.08 					"/>
				</g>
			</g>
			<g>
				<g>
					<polygon class="st3" points="1344.98,1028.65 1333.66,1028.65 1333.66,1016.79 1339.51,1019.23 1344.98,1016.79 					"/>
					<polygon class="st3" points="1344.98,1080.79 1333.66,1080.79 1333.66,1068.94 1339.51,1071.37 1344.98,1068.94 					"/>
				</g>
			</g>
			<g>
				<g>
					<polygon class="st3" points="1344.98,1080.79 1333.66,1080.79 1333.66,1068.94 1339.51,1071.37 1344.98,1068.94 					"/>
					<polygon class="st3" points="1344.98,1132.93 1333.66,1132.93 1333.66,1121.08 1339.51,1123.51 1344.98,1121.08 					"/>
				</g>
			</g>
			<g>
				<g>
					<polygon class="st3" points="1344.98,1132.93 1333.66,1132.93 1333.66,1121.08 1339.51,1123.51 1344.98,1121.08 					"/>
				</g>
			</g>
		</g>
		<g>
			<g>
				<g>
					<polygon class="st3" points="1372.69,1054.72 1361.36,1054.72 1361.36,1042.86 1367.22,1045.3 1372.69,1042.86 					"/>
					<polygon class="st3" points="1345.63,1028.65 1334.31,1028.65 1334.31,1016.79 1340.16,1019.23 1345.63,1016.79 					"/>
					<polygon class="st3" points="1399.74,1028.65 1388.42,1028.65 1388.42,1016.79 1394.27,1019.23 1399.74,1016.79 					"/>
					<polygon class="st3" points="1345.63,1080.79 1334.31,1080.79 1334.31,1068.94 1340.16,1071.37 1345.63,1068.94 					"/>
					<polygon class="st3" points="1399.74,1080.79 1388.42,1080.79 1388.42,1068.94 1394.27,1071.37 1399.74,1068.94 					"/>
				</g>
			</g>
			<g>
				<g>
					<polygon class="st3" points="1372.69,1106.86 1361.36,1106.86 1361.36,1095.01 1367.22,1097.44 1372.69,1095.01 					"/>
					<polygon class="st3" points="1345.63,1080.79 1334.31,1080.79 1334.31,1068.94 1340.16,1071.37 1345.63,1068.94 					"/>
					<polygon class="st3" points="1399.74,1080.79 1388.42,1080.79 1388.42,1068.94 1394.27,1071.37 1399.74,1068.94 					"/>
					<polygon class="st3" points="1345.63,1132.93 1334.31,1132.93 1334.31,1121.08 1340.16,1123.51 1345.63,1121.08 					"/>
					<polygon class="st3" points="1399.74,1132.93 1388.42,1132.93 1388.42,1121.08 1394.27,1123.51 1399.74,1121.08 					"/>
				</g>
			</g>
			<g>
				<g>
					<polygon class="st3" points="1372.69,1159 1361.36,1159 1361.36,1147.15 1367.22,1149.58 1372.69,1147.15 					"/>
					<polygon class="st3" points="1345.63,1132.93 1334.31,1132.93 1334.31,1121.08 1340.16,1123.51 1345.63,1121.08 					"/>
					<polygon class="st3" points="1399.74,1132.93 1388.42,1132.93 1388.42,1121.08 1394.27,1123.51 1399.74,1121.08 					"/>
				</g>
			</g>
			<g>
				<g>
					<polygon class="st3" points="1318.58,1054.72 1307.25,1054.72 1307.25,1042.86 1313.11,1045.3 1318.58,1042.86 					"/>
					<polygon class="st3" points="1291.52,1028.65 1280.2,1028.65 1280.2,1016.79 1286.05,1019.23 1291.52,1016.79 					"/>
					<polygon class="st3" points="1345.63,1028.65 1334.31,1028.65 1334.31,1016.79 1340.16,1019.23 1345.63,1016.79 					"/>
					<polygon class="st3" points="1291.52,1080.79 1280.2,1080.79 1280.2,1068.94 1286.05,1071.37 1291.52,1068.94 					"/>
					<polygon class="st3" points="1345.63,1080.79 1334.31,1080.79 1334.31,1068.94 1340.16,1071.37 1345.63,1068.94 					"/>
				</g>
			</g>
			<g>
				<g>
					<polygon class="st3" points="1318.58,1106.86 1307.25,1106.86 1307.25,1095.01 1313.11,1097.44 1318.58,1095.01 					"/>
					<polygon class="st3" points="1291.52,1080.79 1280.2,1080.79 1280.2,1068.94 1286.05,1071.37 1291.52,1068.94 					"/>
					<polygon class="st3" points="1345.63,1080.79 1334.31,1080.79 1334.31,1068.94 1340.16,1071.37 1345.63,1068.94 					"/>
					<polygon class="st3" points="1291.52,1132.93 1280.2,1132.93 1280.2,1121.08 1286.05,1123.51 1291.52,1121.08 					"/>
					<polygon class="st3" points="1345.63,1132.93 1334.31,1132.93 1334.31,1121.08 1340.16,1123.51 1345.63,1121.08 					"/>
				</g>
			</g>
			<g>
				<g>
					<polygon class="st3" points="1318.58,1159 1307.25,1159 1307.25,1147.15 1313.11,1149.58 1318.58,1147.15 					"/>
					<polygon class="st3" points="1291.52,1132.93 1280.2,1132.93 1280.2,1121.08 1286.05,1123.51 1291.52,1121.08 					"/>
					<polygon class="st3" points="1345.63,1132.93 1334.31,1132.93 1334.31,1121.08 1340.16,1123.51 1345.63,1121.08 					"/>
				</g>
			</g>
			<g>
				<g>
					<polygon class="st3" points="1264.47,1054.72 1253.14,1054.72 1253.14,1042.86 1259,1045.3 1264.47,1042.86 					"/>
					<polygon class="st3" points="1237.42,1028.65 1226.09,1028.65 1226.09,1016.79 1231.94,1019.23 1237.42,1016.79 					"/>
					<polygon class="st3" points="1291.52,1028.65 1280.2,1028.65 1280.2,1016.79 1286.05,1019.23 1291.52,1016.79 					"/>
					<polygon class="st3" points="1237.42,1080.79 1226.09,1080.79 1226.09,1068.94 1231.94,1071.37 1237.42,1068.94 					"/>
					<polygon class="st3" points="1291.52,1080.79 1280.2,1080.79 1280.2,1068.94 1286.05,1071.37 1291.52,1068.94 					"/>
				</g>
			</g>
			<g>
				<g>
					<polygon class="st3" points="1264.47,1106.86 1253.14,1106.86 1253.14,1095.01 1259,1097.44 1264.47,1095.01 					"/>
					<polygon class="st3" points="1237.42,1080.79 1226.09,1080.79 1226.09,1068.94 1231.94,1071.37 1237.42,1068.94 					"/>
					<polygon class="st3" points="1291.52,1080.79 1280.2,1080.79 1280.2,1068.94 1286.05,1071.37 1291.52,1068.94 					"/>
					<polygon class="st3" points="1237.42,1132.93 1226.09,1132.93 1226.09,1121.08 1231.94,1123.51 1237.42,1121.08 					"/>
					<polygon class="st3" points="1291.52,1132.93 1280.2,1132.93 1280.2,1121.08 1286.05,1123.51 1291.52,1121.08 					"/>
				</g>
			</g>
			<g>
				<g>
					<polygon class="st3" points="1264.47,1159 1253.14,1159 1253.14,1147.15 1259,1149.58 1264.47,1147.15 					"/>
					<polygon class="st3" points="1237.42,1132.93 1226.09,1132.93 1226.09,1121.08 1231.94,1123.51 1237.42,1121.08 					"/>
					<polygon class="st3" points="1291.52,1132.93 1280.2,1132.93 1280.2,1121.08 1286.05,1123.51 1291.52,1121.08 					"/>
				</g>
			</g>
			<g>
				<g>
					<polygon class="st3" points="1210.36,1054.72 1199.03,1054.72 1199.03,1042.86 1204.89,1045.3 1210.36,1042.86 					"/>
					<polygon class="st3" points="1183.31,1028.65 1171.98,1028.65 1171.98,1016.79 1177.83,1019.23 1183.31,1016.79 					"/>
					<polygon class="st3" points="1237.42,1028.65 1226.09,1028.65 1226.09,1016.79 1231.94,1019.23 1237.42,1016.79 					"/>
					<polygon class="st3" points="1183.31,1080.79 1171.98,1080.79 1171.98,1068.94 1177.83,1071.37 1183.31,1068.94 					"/>
					<polygon class="st3" points="1237.42,1080.79 1226.09,1080.79 1226.09,1068.94 1231.94,1071.37 1237.42,1068.94 					"/>
				</g>
			</g>
			<g>
				<g>
					<polygon class="st3" points="1210.36,1106.86 1199.03,1106.86 1199.03,1095.01 1204.89,1097.44 1210.36,1095.01 					"/>
					<polygon class="st3" points="1183.31,1080.79 1171.98,1080.79 1171.98,1068.94 1177.83,1071.37 1183.31,1068.94 					"/>
					<polygon class="st3" points="1237.42,1080.79 1226.09,1080.79 1226.09,1068.94 1231.94,1071.37 1237.42,1068.94 					"/>
					<polygon class="st3" points="1183.31,1132.93 1171.98,1132.93 1171.98,1121.08 1177.83,1123.51 1183.31,1121.08 					"/>
					<polygon class="st3" points="1237.42,1132.93 1226.09,1132.93 1226.09,1121.08 1231.94,1123.51 1237.42,1121.08 					"/>
				</g>
			</g>
			<g>
				<g>
					<polygon class="st3" points="1210.36,1159 1199.03,1159 1199.03,1147.15 1204.89,1149.58 1210.36,1147.15 					"/>
					<polygon class="st3" points="1183.31,1132.93 1171.98,1132.93 1171.98,1121.08 1177.83,1123.51 1183.31,1121.08 					"/>
					<polygon class="st3" points="1237.42,1132.93 1226.09,1132.93 1226.09,1121.08 1231.94,1123.51 1237.42,1121.08 					"/>
				</g>
			</g>
			<g>
				<g>
					<polygon class="st3" points="1156.25,1054.72 1144.93,1054.72 1144.93,1042.86 1150.78,1045.3 1156.25,1042.86 					"/>
					<polygon class="st3" points="1129.2,1028.65 1117.87,1028.65 1117.87,1016.79 1123.72,1019.23 1129.2,1016.79 					"/>
					<polygon class="st3" points="1183.31,1028.65 1171.98,1028.65 1171.98,1016.79 1177.83,1019.23 1183.31,1016.79 					"/>
					<polygon class="st3" points="1129.2,1080.79 1117.87,1080.79 1117.87,1068.94 1123.72,1071.37 1129.2,1068.94 					"/>
					<polygon class="st3" points="1183.31,1080.79 1171.98,1080.79 1171.98,1068.94 1177.83,1071.37 1183.31,1068.94 					"/>
				</g>
			</g>
			<g>
				<g>
					<polygon class="st3" points="1156.25,1106.86 1144.93,1106.86 1144.93,1095.01 1150.78,1097.44 1156.25,1095.01 					"/>
					<polygon class="st3" points="1129.2,1080.79 1117.87,1080.79 1117.87,1068.94 1123.72,1071.37 1129.2,1068.94 					"/>
					<polygon class="st3" points="1183.31,1080.79 1171.98,1080.79 1171.98,1068.94 1177.83,1071.37 1183.31,1068.94 					"/>
					<polygon class="st3" points="1129.2,1132.93 1117.87,1132.93 1117.87,1121.08 1123.72,1123.51 1129.2,1121.08 					"/>
					<polygon class="st3" points="1183.31,1132.93 1171.98,1132.93 1171.98,1121.08 1177.83,1123.51 1183.31,1121.08 					"/>
				</g>
			</g>
			<g>
				<g>
					<polygon class="st3" points="1156.25,1159 1144.93,1159 1144.93,1147.15 1150.78,1149.58 1156.25,1147.15 					"/>
					<polygon class="st3" points="1129.2,1132.93 1117.87,1132.93 1117.87,1121.08 1123.72,1123.51 1129.2,1121.08 					"/>
					<polygon class="st3" points="1183.31,1132.93 1171.98,1132.93 1171.98,1121.08 1177.83,1123.51 1183.31,1121.08 					"/>
				</g>
			</g>
			<g>
				<g>
					<polygon class="st3" points="1129.2,1028.65 1117.87,1028.65 1117.87,1016.79 1123.72,1019.23 1129.2,1016.79 					"/>
					<polygon class="st3" points="1129.2,1080.79 1117.87,1080.79 1117.87,1068.94 1123.72,1071.37 1129.2,1068.94 					"/>
				</g>
			</g>
			<g>
				<g>
					<polygon class="st3" points="1129.2,1080.79 1117.87,1080.79 1117.87,1068.94 1123.72,1071.37 1129.2,1068.94 					"/>
					<polygon class="st3" points="1129.2,1132.93 1117.87,1132.93 1117.87,1121.08 1123.72,1123.51 1129.2,1121.08 					"/>
				</g>
			</g>
			<g>
				<g>
					<polygon class="st3" points="1129.2,1132.93 1117.87,1132.93 1117.87,1121.08 1123.72,1123.51 1129.2,1121.08 					"/>
				</g>
			</g>
		</g>
		<g>
			<g>
				<g>
					<polygon class="st3" points="1102.45,1054.72 1091.12,1054.72 1091.12,1042.86 1096.97,1045.3 1102.45,1042.86 					"/>
					<polygon class="st3" points="1075.39,1028.65 1064.07,1028.65 1064.07,1016.79 1069.92,1019.23 1075.39,1016.79 					"/>
					<polygon class="st3" points="1129.5,1028.65 1118.18,1028.65 1118.18,1016.79 1124.03,1019.23 1129.5,1016.79 					"/>
					<polygon class="st3" points="1075.39,1080.79 1064.07,1080.79 1064.07,1068.94 1069.92,1071.37 1075.39,1068.94 					"/>
					<polygon class="st3" points="1129.5,1080.79 1118.18,1080.79 1118.18,1068.94 1124.03,1071.37 1129.5,1068.94 					"/>
				</g>
			</g>
			<g>
				<g>
					<polygon class="st3" points="1102.45,1106.86 1091.12,1106.86 1091.12,1095.01 1096.97,1097.44 1102.45,1095.01 					"/>
					<polygon class="st3" points="1075.39,1080.79 1064.07,1080.79 1064.07,1068.94 1069.92,1071.37 1075.39,1068.94 					"/>
					<polygon class="st3" points="1129.5,1080.79 1118.18,1080.79 1118.18,1068.94 1124.03,1071.37 1129.5,1068.94 					"/>
					<polygon class="st3" points="1075.39,1132.93 1064.07,1132.93 1064.07,1121.08 1069.92,1123.51 1075.39,1121.08 					"/>
					<polygon class="st3" points="1129.5,1132.93 1118.18,1132.93 1118.18,1121.08 1124.03,1123.51 1129.5,1121.08 					"/>
				</g>
			</g>
			<g>
				<g>
					<polygon class="st3" points="1102.45,1159 1091.12,1159 1091.12,1147.15 1096.97,1149.58 1102.45,1147.15 					"/>
					<polygon class="st3" points="1075.39,1132.93 1064.07,1132.93 1064.07,1121.08 1069.92,1123.51 1075.39,1121.08 					"/>
					<polygon class="st3" points="1129.5,1132.93 1118.18,1132.93 1118.18,1121.08 1124.03,1123.51 1129.5,1121.08 					"/>
				</g>
			</g>
			<g>
				<g>
					<polygon class="st3" points="1048.34,1054.72 1037.01,1054.72 1037.01,1042.86 1042.87,1045.3 1048.34,1042.86 					"/>
					<polygon class="st3" points="1021.28,1028.65 1009.96,1028.65 1009.96,1016.79 1015.81,1019.23 1021.28,1016.79 					"/>
					<polygon class="st3" points="1075.39,1028.65 1064.07,1028.65 1064.07,1016.79 1069.92,1019.23 1075.39,1016.79 					"/>
					<polygon class="st3" points="1021.28,1080.79 1009.96,1080.79 1009.96,1068.94 1015.81,1071.37 1021.28,1068.94 					"/>
					<polygon class="st3" points="1075.39,1080.79 1064.07,1080.79 1064.07,1068.94 1069.92,1071.37 1075.39,1068.94 					"/>
				</g>
			</g>
			<g>
				<g>
					<polygon class="st3" points="1048.34,1106.86 1037.01,1106.86 1037.01,1095.01 1042.87,1097.44 1048.34,1095.01 					"/>
					<polygon class="st3" points="1021.28,1080.79 1009.96,1080.79 1009.96,1068.94 1015.81,1071.37 1021.28,1068.94 					"/>
					<polygon class="st3" points="1075.39,1080.79 1064.07,1080.79 1064.07,1068.94 1069.92,1071.37 1075.39,1068.94 					"/>
					<polygon class="st3" points="1021.28,1132.93 1009.96,1132.93 1009.96,1121.08 1015.81,1123.51 1021.28,1121.08 					"/>
					<polygon class="st3" points="1075.39,1132.93 1064.07,1132.93 1064.07,1121.08 1069.92,1123.51 1075.39,1121.08 					"/>
				</g>
			</g>
			<g>
				<g>
					<polygon class="st3" points="1048.34,1159 1037.01,1159 1037.01,1147.15 1042.87,1149.58 1048.34,1147.15 					"/>
					<polygon class="st3" points="1021.28,1132.93 1009.96,1132.93 1009.96,1121.08 1015.81,1123.51 1021.28,1121.08 					"/>
					<polygon class="st3" points="1075.39,1132.93 1064.07,1132.93 1064.07,1121.08 1069.92,1123.51 1075.39,1121.08 					"/>
				</g>
			</g>
			<g>
				<g>
					<polygon class="st3" points="994.23,1054.72 982.9,1054.72 982.9,1042.86 988.76,1045.3 994.23,1042.86 					"/>
					<polygon class="st3" points="967.17,1028.65 955.85,1028.65 955.85,1016.79 961.7,1019.23 967.17,1016.79 					"/>
					<polygon class="st3" points="1021.28,1028.65 1009.96,1028.65 1009.96,1016.79 1015.81,1019.23 1021.28,1016.79 					"/>
					<polygon class="st3" points="967.17,1080.79 955.85,1080.79 955.85,1068.94 961.7,1071.37 967.17,1068.94 					"/>
					<polygon class="st3" points="1021.28,1080.79 1009.96,1080.79 1009.96,1068.94 1015.81,1071.37 1021.28,1068.94 					"/>
				</g>
			</g>
			<g>
				<g>
					<polygon class="st3" points="994.23,1106.86 982.9,1106.86 982.9,1095.01 988.76,1097.44 994.23,1095.01 					"/>
					<polygon class="st3" points="967.17,1080.79 955.85,1080.79 955.85,1068.94 961.7,1071.37 967.17,1068.94 					"/>
					<polygon class="st3" points="1021.28,1080.79 1009.96,1080.79 1009.96,1068.94 1015.81,1071.37 1021.28,1068.94 					"/>
					<polygon class="st3" points="967.17,1132.93 955.85,1132.93 955.85,1121.08 961.7,1123.51 967.17,1121.08 					"/>
					<polygon class="st3" points="1021.28,1132.93 1009.96,1132.93 1009.96,1121.08 1015.81,1123.51 1021.28,1121.08 					"/>
				</g>
			</g>
			<g>
				<g>
					<polygon class="st3" points="994.23,1159 982.9,1159 982.9,1147.15 988.76,1149.58 994.23,1147.15 					"/>
					<polygon class="st3" points="967.17,1132.93 955.85,1132.93 955.85,1121.08 961.7,1123.51 967.17,1121.08 					"/>
					<polygon class="st3" points="1021.28,1132.93 1009.96,1132.93 1009.96,1121.08 1015.81,1123.51 1021.28,1121.08 					"/>
				</g>
			</g>
			<g>
				<g>
					<polygon class="st3" points="940.12,1054.72 928.79,1054.72 928.79,1042.86 934.65,1045.3 940.12,1042.86 					"/>
					<polygon class="st3" points="913.07,1028.65 901.74,1028.65 901.74,1016.79 907.59,1019.23 913.07,1016.79 					"/>
					<polygon class="st3" points="967.17,1028.65 955.85,1028.65 955.85,1016.79 961.7,1019.23 967.17,1016.79 					"/>
					<polygon class="st3" points="913.07,1080.79 901.74,1080.79 901.74,1068.94 907.59,1071.37 913.07,1068.94 					"/>
					<polygon class="st3" points="967.17,1080.79 955.85,1080.79 955.85,1068.94 961.7,1071.37 967.17,1068.94 					"/>
				</g>
			</g>
			<g>
				<g>
					<polygon class="st3" points="940.12,1106.86 928.79,1106.86 928.79,1095.01 934.65,1097.44 940.12,1095.01 					"/>
					<polygon class="st3" points="913.07,1080.79 901.74,1080.79 901.74,1068.94 907.59,1071.37 913.07,1068.94 					"/>
					<polygon class="st3" points="967.17,1080.79 955.85,1080.79 955.85,1068.94 961.7,1071.37 967.17,1068.94 					"/>
					<polygon class="st3" points="913.07,1132.93 901.74,1132.93 901.74,1121.08 907.59,1123.51 913.07,1121.08 					"/>
					<polygon class="st3" points="967.17,1132.93 955.85,1132.93 955.85,1121.08 961.7,1123.51 967.17,1121.08 					"/>
				</g>
			</g>
			<g>
				<g>
					<polygon class="st3" points="940.12,1159 928.79,1159 928.79,1147.15 934.65,1149.58 940.12,1147.15 					"/>
					<polygon class="st3" points="913.07,1132.93 901.74,1132.93 901.74,1121.08 907.59,1123.51 913.07,1121.08 					"/>
					<polygon class="st3" points="967.17,1132.93 955.85,1132.93 955.85,1121.08 961.7,1123.51 967.17,1121.08 					"/>
				</g>
			</g>
			<g>
				<g>
					<polygon class="st3" points="886.01,1054.72 874.68,1054.72 874.68,1042.86 880.54,1045.3 886.01,1042.86 					"/>
					<polygon class="st3" points="858.96,1028.65 847.63,1028.65 847.63,1016.79 853.48,1019.23 858.96,1016.79 					"/>
					<polygon class="st3" points="913.07,1028.65 901.74,1028.65 901.74,1016.79 907.59,1019.23 913.07,1016.79 					"/>
					<polygon class="st3" points="913.07,1080.79 901.74,1080.79 901.74,1068.94 907.59,1071.37 913.07,1068.94 					"/>
				</g>
			</g>
			<g>
				<g>
					<polygon class="st3" points="913.07,1080.79 901.74,1080.79 901.74,1068.94 907.59,1071.37 913.07,1068.94 					"/>
					<polygon class="st3" points="913.07,1132.93 901.74,1132.93 901.74,1121.08 907.59,1123.51 913.07,1121.08 					"/>
				</g>
			</g>
			<g>
				<g>
					<polygon class="st3" points="913.07,1132.93 901.74,1132.93 901.74,1121.08 907.59,1123.51 913.07,1121.08 					"/>
				</g>
			</g>
			<g>
				<g>
					<polygon class="st3" points="858.96,1028.65 847.63,1028.65 847.63,1016.79 853.48,1019.23 858.96,1016.79 					"/>
				</g>
			</g>
		</g>
	</g>
</g>
<g id="first">
	<path class="st4" d="M114.33,746.39c16.04,0,16.04,16.5,32.08,16.5c16.04,0,16.04-16.5,32.09-16.5c12.44,0,15.32,9.82,23.41,14.28
		l-55.41-99.87l-55.37,99.8C99.08,756.1,101.99,746.39,114.33,746.39z"/>
	<path class="st4" d="M417.93,826.45c8.84,0,8.84,9.1,17.69,9.1c8.85,0,8.85-9.1,17.69-9.1c6.86,0,8.45,5.41,12.91,7.88
		l-30.55-55.07l-30.53,55.04C409.52,831.8,411.12,826.45,417.93,826.45z"/>
	<path class="st4" d="M282.89,792.65c11.88,0,11.88,12.23,23.76,12.23c11.89,0,11.89-12.23,23.77-12.23
		c9.21,0,11.35,7.27,17.34,10.58l-41.05-73.99l-41.02,73.94C271.6,799.84,273.75,792.65,282.89,792.65z"/>
	<g>
		<linearGradient id="SVGID_2_" gradientUnits="userSpaceOnUse" x1="288.6765" y1="733.2542" x2="288.6765" y2="922.94">
			<stop  offset="0" style="stop-color:#0091A3"/>
			<stop  offset="1" style="stop-color:#A0E6D7"/>
		</linearGradient>
		<path class="st5" d="M538.76,855.29c-3.43-1.89-4.65-6.05-9.92-6.05c-6.8,0-6.8,6.99-13.6,6.99c-6.8,0-6.8-6.99-13.59-6.99
			c-5.23,0-6.46,4.11-9.83,6.02l-6.99,12.61l-18.61-33.54c-4.46-2.46-6.05-7.88-12.91-7.88c-8.85,0-8.85,9.1-17.69,9.1
			c-8.84,0-8.84-9.1-17.69-9.1c-6.8,0-8.41,5.35-12.79,7.84l-20.07,36.17l-37.3-67.23c-5.99-3.31-8.13-10.58-17.34-10.58
			c-11.88,0-11.88,12.23-23.77,12.23c-11.88,0-11.88-12.23-23.76-12.23c-9.14,0-11.29,7.19-17.19,10.53l-20.11,36.26l-43.69-78.76
			c-8.09-4.47-10.97-14.28-23.41-14.28c-16.04,0-16.04,16.5-32.09,16.5c-16.04,0-16.04-16.5-32.08-16.5
			c-12.34,0-15.24,9.71-23.2,14.22L0,924.86h198.2h94.78h61.9h60.36h37.96h63.24h60.91L538.76,855.29z"/>
		<path class="st4" d="M501.65,849.24c6.8,0,6.8,6.99,13.59,6.99c6.8,0,6.8-6.99,13.6-6.99c5.27,0,6.49,4.16,9.92,6.05l-23.48-42.32
			l-23.46,42.29C495.19,853.35,496.42,849.24,501.65,849.24z"/>
	</g>
	<g>
		<rect x="712.49" y="914.21" class="st6" width="7.65" height="24.24"/>
		<polygon class="st7" points="706.59,922.36 716.32,878.5 726.05,922.36 		"/>
	</g>
	<g>
		<rect x="682.42" y="920.5" class="st6" width="7.65" height="24.24"/>
		<polygon class="st8" points="676.52,928.64 686.25,884.78 695.98,928.64 		"/>
	</g>
	<g>
		<rect x="743.9" y="917.78" class="st6" width="7.65" height="24.24"/>
		<polygon class="st9" points="735.45,925.92 747.73,870.58 760.01,925.92 		"/>
	</g>
	<g>
		<rect x="762.24" y="1052.04" class="st6" width="6.74" height="21.35"/>
		<polygon class="st9" points="754.79,1059.21 765.61,1010.46 776.43,1059.21 		"/>
	</g>
	<g>
		<rect x="1820.27" y="915.46" class="st6" width="6.65" height="15.51"/>
		<path class="st8" d="M1841.06,902.83c0,9.64-7.82,17.46-17.46,17.46c-9.64,0-17.46-7.82-17.46-17.46
			c0-9.64,7.82-17.46,17.46-17.46C1833.24,885.37,1841.06,893.19,1841.06,902.83z"/>
	</g>
	<g>
		<rect x="1726.78" y="919.51" class="st6" width="5.99" height="13.97"/>
		<path class="st10" d="M1745.5,908.13c0,8.69-7.04,15.73-15.73,15.73c-8.68,0-15.73-7.04-15.73-15.73
			c0-8.69,7.04-15.73,15.73-15.73C1738.46,892.4,1745.5,899.44,1745.5,908.13z"/>
	</g>
	<g>
		<rect x="1767.97" y="915.98" class="st6" width="7.01" height="16.35"/>
		<path class="st11" d="M1789.88,902.66c0,10.17-8.24,18.41-18.41,18.41c-10.16,0-18.41-8.24-18.41-18.41
			c0-10.17,8.24-18.41,18.41-18.41C1781.64,884.26,1789.88,892.5,1789.88,902.66z"/>
	</g>
	<g>
		<g>
			<path class="st12" d="M1513.81,1112.36v3.26h-4.12v-3h2.85C1512.99,1112.62,1513.42,1112.52,1513.81,1112.36z"/>
			<polygon class="st12" points="1512.36,1099.95 1512.38,1100.07 1512.18,1100.07 			"/>
			<path class="st12" d="M1483.5,1113c0.07,0,0.12-0.03,0.2-0.04l-0.81,3.47h-3.09l0.6-3.58c0.23,0.05,0.45,0.14,0.7,0.14H1483.5z"
				/>
			<path class="st13" d="M1507,1103.46l5.18-3.39h0.2l1.42,8.13v4.17c-0.39,0.16-0.82,0.26-1.27,0.26h-2.85v-3.8L1507,1103.46z"/>
			<path class="st13" d="M1481.25,1103.66c0.2-2.47,5.15-1.44,5.15-1.44l-1.44,5.36l-1.25,5.39c-0.07,0-0.13,0.04-0.2,0.04h-2.41
				c-0.25,0-0.47-0.09-0.7-0.14l0.44-2.6L1481.25,1103.66z"/>
		</g>
		<path class="st12" d="M1527.41,1090.06c0,0-1.65,8.86,2.27,12.16c0,0,4.33-0.62,4.94,5.15c0,0-4.12-0.41-4.94-3.3
			c0,0-4.12-4.12-4.54-8.24C1524.73,1091.71,1527.41,1090.06,1527.41,1090.06z"/>
		<path class="st12" d="M1516.31,1099.97c1.76,1.93,2.41,1.88,3.83,2.4c2.27,0.82,2.11,4.18,1.7,6.45
			c-0.41,2.27-1.03,6.39-1.03,6.39l1.2,0.2c-0.68,1.85-1.2,3.1-1.2,3.1h-4.12l3.71-13.19
			C1520.4,1105.31,1518.07,1103.23,1516.31,1099.97z"/>
		<path class="st12" d="M1457.96,1092.43c0-1.2-0.97-2.17-2.17-2.17h-0.27c0.77-1.38,1.93-3.44,3-5.36
			c2.05,1.09,4.57,2.32,5.78,2.42c2.2,0.19,5.37-2.59,5.37-2.59l4.38-6.28c1.28-0.01,2.31,0,2.67,0.06c0.4,0.07,1.05-0.14,1.81-0.43
			c-1.08,1.54-2.83,4.17-3.25,5.58c-0.62,2.06-0.42,6.8,1.03,8.24c1.44,1.45,3.92,2.47,5.56,2.47c0.26,0,0.52,0.09,0.78,0.2
			c0.11,3.23,0.36,6.13,0.86,7.43c0.28,0.73,0.56,1.33,0.84,1.89c-0.91-0.04-1.62-0.09-2.08-0.15c-3.65-0.45-4.68-3.54-5.82-6.73
			c-1.14-3.19-7.98-4.11-9.01-4.33c-1.02-0.23-1.48,1.94-2.73,2.17c-1.26,0.23-3.19-0.91-4-0.91c-0.79,0-1.59,1.48-3.3,1.48
			c-0.59,0-1.15-0.35-1.62-0.83C1456.99,1094.59,1457.96,1093.63,1457.96,1092.43z"/>
		<path class="st12" d="M1492.31,1101.34c0.22-0.62,0.49-1.23,0.89-1.8c2.27-0.62,5.56-1.85,7.01-1.23
			c1.45,0.62,3.92,2.88,5.35,2.68c1.45-0.21,5.98-2.06,6.6-2.27c0.62-0.2,5.35,1.85,5.35,1.85s0.42-8.19-0.24-15.2
			c2.09,6.2,4.27,13.45,3.31,14.16c-1.71,1.26-6.84,4.45-10.95,4.56c-2.51,0.07-10.81,0.09-17.72,0l0.45-2.7
			C1492.37,1101.39,1492.35,1101.38,1492.31,1101.34z"/>
		<path class="st12" d="M1491.75,1105.93l-0.47,1.91l0.43-2.57C1491.72,1105.68,1491.75,1105.93,1491.75,1105.93z"/>
		<path class="st12" d="M1488.66,1118.5h-3.71c0,0,0.26-0.93,0.56-2.23l3.5,0.83L1488.66,1118.5z"/>
		<path class="st12" d="M1482.65,1094.59c1.4,0.63,2.75,2.74,2.92,4.13c0.21,1.64,3.26,3.49,3.5,5.33c0,0.01,0.01,0.02,0.01,0.03
			c0.21,1.85-2.68,5.98-2.68,5.98c0-2.65-0.93-3.86-2.05-6.15c-0.27-0.56-0.55-1.16-0.84-1.89
			C1483.01,1100.72,1482.76,1097.82,1482.65,1094.59z"/>
		<path class="st13" d="M1454.67,1091.78c0.09-0.16,0.4-0.72,0.84-1.51h0.27c1.2,0,2.17,0.97,2.17,2.17c0,1.2-0.97,2.16-2.17,2.16
			C1454.91,1093.69,1454.37,1092.3,1454.67,1091.78z"/>
		<path class="st13" d="M1491.92,1104.09l-0.2,1.17c-0.01-0.31,0-0.72,0.04-1.17C1491.81,1104.09,1491.86,1104.09,1491.92,1104.09z"
			/>
		<path class="st13" d="M1475.27,1083.67c0.42-1.41,2.17-4.04,3.25-5.58c1.58-0.61,3.67-1.63,5.2-1.63c2.26,0,30.37-0.08,30.37-0.08
			c1.16-1.16,7.15,0.28,10.64,1.72c3.5,1.44,3.3,6.8,3.3,10.93c0,4.12-3.91,8.65-2.89,12.57c0.71,2.7-1.61,9.71-3.13,13.8l-1.2-0.2
			c0,0,0.62-4.12,1.03-6.39c0.41-2.27,0.41-5.36-1.86-6.18c-0.97-0.35-2.29-1.34-3.59-2.53c-1.43-0.6-3.82-1.53-4.24-1.39
			c-0.62,0.21-5.15,2.06-6.6,2.27c-1.44,0.21-3.91-2.06-5.35-2.68c-1.45-0.62-4.74,0.62-7.01,1.23c-0.39,0.57-0.67,1.19-0.89,1.8
			c0.04,0.03,0.06,0.05,0.06,0.05l-0.45,2.7c-0.06,0-0.11,0-0.16,0c-0.04,0.46-0.05,0.87-0.04,1.17l-0.43,2.57l-2.28,9.26l-3.5-0.83
			c0.4-1.79,0.89-4.3,0.89-6.22c0,0,2.89-4.12,2.68-5.98c0-0.01-0.01-0.02-0.01-0.03c-0.24-1.85-3.29-3.69-3.5-5.33
			c-0.18-1.39-1.53-3.5-2.92-4.13c-0.26-0.11-0.53-0.2-0.78-0.2c-1.65,0-4.12-1.03-5.56-2.47
			C1474.86,1090.47,1474.65,1085.73,1475.27,1083.67z"/>
		<path class="st13" d="M1464.29,1087.32c-1.21-0.11-3.73-1.33-5.78-2.42c1.4-2.51,2.66-4.76,2.66-4.76
			c-1.71-0.23-3.76-4.33-3.76-4.33l7.41,2.39c1.64,0.36,6.2,0.27,9.22,0.25l-4.38,6.28
			C1469.65,1084.74,1466.49,1087.52,1464.29,1087.32z"/>
	</g>
	<rect x="-9.48" y="956.8" class="st4" width="1953.31" height="18.9"/>
	<path class="st14" d="M738.79,1073.93c0-11.44-33.91-20.72-75.75-20.72c-41.84,0-75.75,9.28-75.75,20.72
		c0,2.07,1.11,4.06,3.17,5.94c3.39,3.09,2.13,8.58-2.31,9.68c-16.34,4.03-27.36,11.65-27.36,20.38c0,12.94,24.18,23.44,54.01,23.44
		s51.5-7.35,52.55-20.25c0.82-10.07-18.69-18.69-4.32-18.47C704.87,1095.28,738.79,1085.37,738.79,1073.93z"/>
	<g>
		<g>
			<defs>
				<rect id="SVGID_3_" x="585.78" y="1033.59" width="111.65" height="38.27"/>
			</defs>
			<clipPath id="SVGID_4_">
				<use xlink:href="#SVGID_3_"  style="overflow:visible;"/>
			</clipPath>
			<g class="st15">
				<path class="st16" d="M631.75,1052.84c0,0,10.22-2,15.65,1.12c5.43,3.11-1.84,4.96-2.44,5.43c-0.6,0.47-2.53,2.29-2.53,2.29
					L631.75,1052.84z"/>
				<path class="st17" d="M676.98,1070.73c-1.71-2.81-4.83-3.7-6.73-3.99c-1.35,3.52-2.97,3.98-4.85,5.33
					c-6.62,2.13-10.09-2.14-14.16-5.1c-4.07-2.96-20.25-15.95-23.6-18.38c-3.96-2.87-10.41-7.11-14.6-8.77
					c-4.19-1.67-10.61-3.32-11.59-3.94c-0.98-0.62-2.54-1.28-3.21-0.61c-0.66,0.67,0.14,1.38,1.12,1.55
					c0.98,0.17,2.29,4.3,4.46,9.01c0,0-5.75-1.88-7.86-4.05c-2.1-2.17-2.86-2.12-3.35-1.54c-0.49,0.58-0.39,1.2,0.59,2.27
					s2.33,2.84,3.5,4.25c0.44,0.54,2.14,3.19,4.98,6.74l0.88-0.23l2.28,1.5l8.22,1.53c3.83,3.25,10.63,13.04,21.29,17.19
					c10.45,4.07,22.09,5.89,27.57,4.79s7.61-2.18,11.02-1.06c0.25,0.08,0.46,0.19,0.64,0.3c2.35-0.05,4.92,0.07,6.64,0.29
					C679.49,1075.8,678.39,1073.05,676.98,1070.73z"/>
				<path class="st16" d="M687.27,1071.66c-1.82-1.61-4.47-6.88-5.23-8.58c-0.76-1.69-4.87-8.39-7.61-6.88
					c-2.73,1.5-2.37,4.83-3.79,9.43c-0.13,0.42-0.26,0.76-0.4,1.11c1.9,0.29,5.02,1.18,6.73,3.99c1.41,2.32,2.52,5.07,3.22,7.07
					c0.4,0.05,0.76,0.11,1.06,0.17c1.83,0.4,8.73-0.64,8.73-0.64S689.09,1073.27,687.27,1071.66z"/>
				<path class="st18" d="M661.9,1078.28c-5.48,1.1-17.11-0.72-27.57-4.79c-10.65-4.15-17.46-13.94-21.29-17.19l-8.22-1.53
					l-2.28-1.5l-0.88,0.23c4.62,5.77,12.29,13.92,22.63,19.32c16.69,8.72,32.22,10.58,44.36,5.22c0.98-0.33,2.86-0.49,4.91-0.53
					c-0.18-0.11-0.38-0.21-0.64-0.3C669.51,1076.1,667.38,1077.18,661.9,1078.28z"/>
				<path class="st16" d="M616.33,1048.74c0,0,0.39,6.05-5.35,6.39c-5.74,0.34-8.42-1.87-8.42-1.87s4.96,4.29,9.05,3.55
					C615.7,1056.09,617.9,1051.63,616.33,1048.74z"/>
				<path class="st16" d="M659.04,1080.9c0,0,2.09,2.46,1.09,3.47c-1,1.01-5,2.37-5.32,4.71c-0.32,2.34-9.75-10.31-9.75-10.31
					L659.04,1080.9z"/>
				<path class="st16" d="M613.08,1055.82c0,0,6.34,2.66,9.05,6.82c2.72,4.16-5.72,3.07-6.63,2.05
					C614.59,1063.66,608.65,1056.14,613.08,1055.82z"/>
				<circle class="st19" cx="606.58" cy="1040.52" r="1.69"/>
				<circle class="st20" cx="606.58" cy="1040.52" r="1.13"/>
				
					<ellipse transform="matrix(0.6855 -0.7281 0.7281 0.6855 -567.3645 784.7704)" class="st21" cx="624.64" cy="1049.07" rx="0.95" ry="1.59"/>
				
					<ellipse transform="matrix(0.6855 -0.7281 0.7281 0.6855 -570.0731 788.0162)" class="st21" cx="627.04" cy="1053.83" rx="0.87" ry="1.45"/>
				
					<ellipse transform="matrix(0.5035 -0.864 0.864 0.5035 -597.4223 1069.8312)" class="st21" cx="632.12" cy="1054.72" rx="0.7" ry="1.16"/>
				
					<ellipse transform="matrix(0.5035 -0.864 0.864 0.5035 -599.4179 1073.8163)" class="st21" cx="634.59" cy="1058.44" rx="0.7" ry="1.16"/>
				
					<ellipse transform="matrix(0.6855 -0.7281 0.7281 0.6855 -571.8124 799.5737)" class="st21" cx="639.55" cy="1061.62" rx="0.95" ry="1.59"/>
				
					<ellipse transform="matrix(0.4846 -0.8747 0.8747 0.4846 -601.454 1110.7371)" class="st21" cx="641.9" cy="1065.79" rx="0.87" ry="1.45"/>
				
					<ellipse transform="matrix(0.5035 -0.864 0.864 0.5035 -600.7388 1088.3588)" class="st21" cx="646.58" cy="1066.86" rx="0.7" ry="1.16"/>
				
					<ellipse transform="matrix(0.2978 -0.9546 0.9546 0.2978 -564.8281 1371.3673)" class="st21" cx="649.73" cy="1069.61" rx="0.7" ry="1.16"/>
				
					<ellipse transform="matrix(0.6259 -0.7799 0.7799 0.6259 -590.2013 893.1939)" class="st21" cx="635.89" cy="1061.78" rx="0.54" ry="0.89"/>
				
					<ellipse transform="matrix(0.5844 -0.8115 0.8115 0.5844 -596.3049 951.3542)" class="st21" cx="630.57" cy="1057.8" rx="0.54" ry="0.89"/>
			</g>
		</g>
		<circle class="st4" cx="631.64" cy="1073.72" r="7.68"/>
		<circle class="st4" cx="667.06" cy="1070.61" r="4.33"/>
		<circle class="st4" cx="649.45" cy="1073.71" r="4.34"/>
		<circle class="st4" cx="657.22" cy="1071.22" r="3.72"/>
		<circle class="st4" cx="642.62" cy="1072.15" r="4.33"/>
		<circle class="st4" cx="650.7" cy="1036.59" r="3.57"/>
		<circle class="st4" cx="683" cy="1052.66" r="2.71"/>
		<circle class="st4" cx="661.26" cy="1046.68" r="4.96"/>
		<circle class="st4" cx="685.7" cy="1070.15" r="5.11"/>
		<circle class="st4" cx="621.39" cy="1073.87" r="5.11"/>
	</g>
	<g>
		<g>
			<path class="st22" d="M1200.97,1091.67c0,1.01-0.82,1.83-1.83,1.83l0,0c-1.01,0-1.82-0.82-1.82-1.83v-9.28
				c0-1,0.81-1.82,1.82-1.82l0,0c1.01,0,1.83,0.82,1.83,1.82V1091.67z"/>
		</g>
		<g>
			<path class="st22" d="M1195.07,1091.67c0,1.01-0.81,1.83-1.82,1.83l0,0c-1.01,0-1.83-0.82-1.83-1.83v-9.28
				c0-1,0.82-1.82,1.83-1.82l0,0c1.01,0,1.82,0.82,1.82,1.82V1091.67z"/>
		</g>
		<g>
			<path class="st22" d="M1179.71,1091.67c0,1.01-0.82,1.83-1.83,1.83l0,0c-1.01,0-1.83-0.82-1.83-1.83v-9.28
				c0-1,0.82-1.82,1.83-1.82l0,0c1.01,0,1.83,0.82,1.83,1.82V1091.67z"/>
		</g>
		<g>
			<path class="st22" d="M1173.81,1091.67c0,1.01-0.82,1.83-1.83,1.83l0,0c-1.01,0-1.83-0.82-1.83-1.83v-9.28
				c0-1,0.82-1.82,1.83-1.82l0,0c1.01,0,1.83,0.82,1.83,1.82V1091.67z"/>
		</g>
		<path class="st4" d="M1208.7,1073.04c0.13,14.03-9.86,13.02-23.57,13.02c-13.72,0-21.55-0.01-21.68-11.41
			c-0.09-8.35,6.7-15.63,20.42-15.63C1197.58,1059.01,1208.59,1060.12,1208.7,1073.04z"/>
		<g>
			<path class="st22" d="M1213.19,1074.28c1.02,4.64-1.27,9.79-3.34,10.37c-2.19,0.62-6.22-2.75-7.24-7.38
				c-1.02-4.64,0.82-7.76,3.74-8.58C1209.26,1067.86,1212.17,1069.65,1213.19,1074.28z"/>
			<g>
				<path class="st22" d="M1216.36,1069.61c-0.13,1.25-1.8,2.05-3.72,1.78c-1.91-0.26-3.38-1.48-3.25-2.73
					c0.14-1.25,1.71-0.83,3.63-0.56C1214.95,1068.37,1216.5,1068.37,1216.36,1069.61z"/>
				<path class="st22" d="M1197.87,1074.85c0.63,1.03,2.44,0.85,4.03-0.41c1.59-1.25,2.37-3.11,1.73-4.14
					c-0.63-1.04-1.85,0.18-3.43,1.44C1198.59,1072.99,1197.24,1073.81,1197.87,1074.85z"/>
			</g>
		</g>
	</g>
</g>
<g id="cloud">
</g>
<g id="car" class="st0">
	<g id="car_1_" class="st23">
		<ellipse class="st24" cx="1141.49" cy="969.59" rx="88.25" ry="6.37"/>
		<g>
			<g>
				<path class="st25" d="M1139.27,926.32c-9.49-2.28-32.56-1.02-47.92,4.51s-17.2,5.94-17.2,5.94l-15.77,0.61l-0.82,1.43l0.61,2.87
					c0,0-1.84,1.84-2.25,4.3c-0.41,2.46,0.2,9.63,1.23,13.52s3.69,5.53,6.14,6.35c2.46,0.82,9.63,1.43,9.63,1.43
					s132.91,0.2,136.59,0.61c3.69,0.41,10.85-1.23,12.49-2.46c0,0-0.82-3.48-0.2-6.76s2.25-4.71-1.84-8.4
					c-4.1-3.69-9.42-7.17-22.12-9.22s-29.08-3.89-29.08-3.89S1144.39,927.55,1139.27,926.32z"/>
				<path class="st26" d="M1137.22,928.57c-3.26-0.87-16.18-0.82-23.76-0.2s-11.67,2.05-11.67,2.05v4.91c0,0,4.3,2.87,7.99,3.28
					c3.69,0.41,51.81,2.05,51.81,2.05S1148.69,931.65,1137.22,928.57z"/>
				<path class="st26" d="M1168.69,937.15c-2.14,0.31-4.75,0.52-6.89,0.23c-4.5-0.61-13.93-6.35-16.99-7.99
					c-1.25-0.67-1.96-1.43-2.36-2.11"/>
				
					<linearGradient id="SVGID_5_" gradientUnits="userSpaceOnUse" x1="1067.2854" y1="950.4045" x2="1079.1486" y2="950.4045" gradientTransform="matrix(-1 0 0 1 2282.988 0)">
					<stop  offset="0" style="stop-color:#EBEBEB"/>
					<stop  offset="1" style="stop-color:#FFFFFF"/>
				</linearGradient>
				<path class="st27" d="M1204,946.22c-0.28-0.13-0.17-0.55,0.13-0.52c2.35,0.22,6.74,0.76,9.06,1.92
					c1.28,0.64,2.27,1.72,2.46,3.17c0.2,1.57-0.27,3.03-1.29,4.23c-0.14,0.17-0.42,0.1-0.47-0.11c-0.15-0.59-0.31-1.17-0.48-1.75
					c-0.27-0.91-0.48-1.84-1.24-2.49c-1.01-0.86-2.26-1.48-3.42-2.13c-0.82-0.46-1.66-0.95-2.52-1.33L1204,946.22z"/>
				<path class="st28" d="M1157.21,941.63c0,0-0.45-3.4-1.61-4.2c-1.16-0.81-4.11-0.63-4.92-0.63c-0.81,0-1.07,0.09-0.89,1.43
					c0.18,1.34-0.18,2.77,1.52,3.22C1153.01,941.9,1157.21,941.63,1157.21,941.63z"/>
				<g>
					<path class="st28" d="M1110.23,954.41l-4.47-0.09c0,0,0.09,0.72,0.54,1.34c0.45,0.63,7.7,7.42,10.03,7.87
						c2.33,0.45,7.42,0,7.42,0v-0.54c0,0-3.77-0.48-5.47-1.19c-1.7-0.72-4.81-3.1-6.24-4.44S1110.23,954.41,1110.23,954.41z"/>
					<path class="st28" d="M1180.63,964.47c0,0-60.52-0.76-62.62-0.76s0-1.14,0-1.14l62.85,0.76L1180.63,964.47z"/>
				</g>
			</g>
			<g>
				<circle class="st29" cx="1193.15" cy="961.12" r="13.93"/>
				<circle class="st26" cx="1193.15" cy="961.12" r="10"/>
				<g>
					<circle class="st30" cx="1193.15" cy="961.12" r="2.21"/>
					<path class="st30" d="M1204.2,960.68c-0.1-2.72-1.2-5.2-2.93-7.07c-0.2-0.21-0.41-0.42-0.62-0.61
						c-1.87-1.74-4.34-2.83-7.07-2.93c-0.14,0-0.29-0.01-0.44-0.01s-0.29,0-0.44,0.01c-2.73,0.1-5.2,1.2-7.07,2.93
						c-0.21,0.2-0.42,0.4-0.61,0.61c-1.73,1.87-2.83,4.34-2.93,7.07c0,0.14-0.01,0.29-0.01,0.44c0,0.14,0,0.29,0.01,0.44
						c0.1,2.73,1.2,5.2,2.93,7.07c0.2,0.21,0.4,0.42,0.61,0.61c1.87,1.73,4.34,2.83,7.07,2.93c0.14,0,0.29,0.01,0.44,0.01
						s0.29,0,0.44-0.01c2.72-0.1,5.2-1.19,7.07-2.93c0.21-0.2,0.42-0.4,0.62-0.61c1.73-1.87,2.83-4.34,2.93-7.07
						c0-0.14,0.01-0.29,0.01-0.44C1204.21,960.97,1204.2,960.83,1204.2,960.68z M1199.94,967.29c-0.2,0.21-0.4,0.42-0.61,0.62h0
						c-1.53,1.39-3.53,2.27-5.73,2.37c-0.14,0.01-0.29,0.01-0.44,0.01s-0.29,0-0.44-0.01c-2.21-0.1-4.2-0.98-5.73-2.37
						c-0.21-0.2-0.42-0.4-0.61-0.61c-1.39-1.53-2.27-3.53-2.37-5.74c-0.01-0.14-0.01-0.29-0.01-0.44c0-0.15,0-0.29,0.01-0.44
						c0.1-2.21,0.99-4.2,2.37-5.73c0.2-0.21,0.4-0.42,0.61-0.61c1.53-1.39,3.53-2.27,5.73-2.37c0.14-0.01,0.29-0.01,0.44-0.01
						s0.29,0,0.44,0.01c2.21,0.1,4.21,0.99,5.74,2.37c0.21,0.2,0.42,0.41,0.61,0.62c1.39,1.53,2.27,3.53,2.37,5.73
						c0.01,0.14,0.01,0.29,0.01,0.44c0,0.15,0,0.29-0.01,0.44C1202.21,963.76,1201.33,965.76,1199.94,967.29z"/>
					<path class="st30" d="M1185.03,968.63l1.33-1.33l4.94-4.95l0.79-0.79h-1.11h-6.99h-1.89v-0.87h1.89h6.99h1.11l-0.78-0.78
						l-4.95-4.95l-1.33-1.33l0.61-0.61l1.33,1.33l4.95,4.95l0.78,0.78v-1.11v-6.99v-1.89c0.14,0,0.29-0.01,0.44-0.01
						s0.29,0,0.44,0.01v1.89v6.99v1.11l0.79-0.79l4.95-4.95l1.33-1.33l0.62,0.61l-1.33,1.33l-4.95,4.95l-0.78,0.78h1.11h7h1.89v0.87
						h-1.89h-7h-1.11l0.78,0.78l4.95,4.95l1.33,1.33l-0.62,0.61l-1.33-1.33h0l-4.94-4.95l-0.79-0.79v1.11v6.99v1.89h-0.87v-1.89
						v-6.99v-1.11l-0.78,0.78l-4.95,4.95l-1.33,1.33L1185.03,968.63z"/>
				</g>
			</g>
			<g>
				<circle class="st29" cx="1087.45" cy="961.12" r="13.93"/>
				<circle class="st26" cx="1087.45" cy="961.12" r="10"/>
				<g>
					<circle class="st30" cx="1087.45" cy="961.12" r="2.21"/>
					<path class="st30" d="M1098.5,960.68c-0.1-2.72-1.2-5.2-2.93-7.07c-0.2-0.21-0.41-0.42-0.62-0.61
						c-1.87-1.74-4.34-2.83-7.07-2.93c-0.14,0-0.29-0.01-0.44-0.01c-0.14,0-0.29,0-0.44,0.01c-2.73,0.1-5.2,1.2-7.07,2.93
						c-0.21,0.2-0.42,0.4-0.61,0.61c-1.73,1.87-2.83,4.34-2.93,7.07c0,0.14-0.01,0.29-0.01,0.44c0,0.14,0,0.29,0.01,0.44
						c0.1,2.73,1.2,5.2,2.93,7.07c0.2,0.21,0.4,0.42,0.61,0.61c1.87,1.73,4.34,2.83,7.07,2.93c0.14,0,0.29,0.01,0.44,0.01
						c0.14,0,0.29,0,0.44-0.01c2.72-0.1,5.2-1.19,7.07-2.93c0.21-0.2,0.42-0.4,0.62-0.61c1.73-1.87,2.83-4.34,2.93-7.07
						c0-0.14,0.01-0.29,0.01-0.44C1098.51,960.97,1098.5,960.83,1098.5,960.68z M1094.23,967.29c-0.2,0.21-0.4,0.42-0.61,0.62h0
						c-1.53,1.39-3.53,2.27-5.73,2.37c-0.14,0.01-0.29,0.01-0.44,0.01s-0.29,0-0.44-0.01c-2.21-0.1-4.2-0.98-5.73-2.37
						c-0.21-0.2-0.42-0.4-0.61-0.61c-1.39-1.53-2.27-3.53-2.37-5.74c-0.01-0.14-0.01-0.29-0.01-0.44c0-0.15,0-0.29,0.01-0.44
						c0.1-2.21,0.99-4.2,2.37-5.73c0.2-0.21,0.4-0.42,0.61-0.61c1.53-1.39,3.53-2.27,5.73-2.37c0.14-0.01,0.29-0.01,0.44-0.01
						s0.29,0,0.44,0.01c2.21,0.1,4.21,0.99,5.74,2.37c0.21,0.2,0.42,0.41,0.61,0.62c1.39,1.53,2.27,3.53,2.37,5.73
						c0.01,0.14,0.01,0.29,0.01,0.44c0,0.15,0,0.29-0.01,0.44C1096.5,963.76,1095.62,965.76,1094.23,967.29z"/>
					<path class="st30" d="M1079.33,968.63l1.33-1.33l4.94-4.95l0.79-0.79h-1.11h-6.99h-1.89v-0.87h1.89h6.99h1.11l-0.78-0.78
						l-4.95-4.95l-1.33-1.33l0.61-0.61l1.33,1.33l4.95,4.95l0.78,0.78v-1.11v-6.99v-1.89c0.14,0,0.29-0.01,0.44-0.01
						c0.14,0,0.29,0,0.44,0.01v1.89v6.99v1.11l0.79-0.79l4.95-4.95l1.33-1.33l0.62,0.61l-1.33,1.33l-4.95,4.95l-0.78,0.78h1.11h7
						h1.89v0.87h-1.89h-7h-1.11l0.78,0.78l4.95,4.95l1.33,1.33l-0.62,0.61l-1.33-1.33h0l-4.94-4.95l-0.79-0.79v1.11v6.99v1.89h-0.87
						v-1.89v-6.99v-1.11l-0.78,0.78l-4.95,4.95l-1.33,1.33L1079.33,968.63z"/>
				</g>
			</g>
		</g>
	</g>
</g>
<g id="top">
	<g>
		<rect x="784.91" y="1054.29" class="st6" width="9.73" height="30.8"/>
		<polygon class="st8" points="777.41,1064.63 789.77,1008.9 802.14,1064.63 		"/>
	</g>
	<linearGradient id="SVGID_6_" gradientUnits="userSpaceOnUse" x1="401.6089" y1="994.0415" x2="401.6089" y2="1092.8018">
		<stop  offset="0" style="stop-color:#015138"/>
		<stop  offset="0.5799" style="stop-color:#4DA93D"/>
		<stop  offset="0.8354" style="stop-color:#68B743"/>
	</linearGradient>
	<path class="st31" d="M392.22,1004.28l-84.9,70.31h188.56l-84.9-70.31C405.93,998.82,397.29,998.82,392.22,1004.28z"/>
	<linearGradient id="SVGID_7_" gradientUnits="userSpaceOnUse" x1="307.3106" y1="997.4597" x2="307.3106" y2="1096.22">
		<stop  offset="0" style="stop-color:#015138"/>
		<stop  offset="0.5799" style="stop-color:#4DA93D"/>
		<stop  offset="0.8354" style="stop-color:#68B743"/>
	</linearGradient>
	<path class="st32" d="M297.93,1007.7l-84.9,70.31h188.56l-84.9-70.31C311.63,1002.23,302.99,1002.23,297.93,1007.7z"/>
	<linearGradient id="SVGID_8_" gradientUnits="userSpaceOnUse" x1="211.3885" y1="1003.5432" x2="211.3885" y2="1128.703">
		<stop  offset="0" style="stop-color:#015138"/>
		<stop  offset="0.5799" style="stop-color:#4DA93D"/>
		<stop  offset="0.8354" style="stop-color:#68B743"/>
	</linearGradient>
	<path class="st33" d="M199.5,1016.52L91.9,1105.62h238.97l-107.59-89.11C216.86,1009.59,205.91,1009.59,199.5,1016.52z"/>
</g>
<g id="Layer_3" class="st0">
	<g class="st23">
		<text transform="matrix(1 0 0 1 558.4227 568.96)" class="st34 st35 st36">I like Glovos design!</text>
		<g>
			<rect x="539.08" y="601.68" class="st37" width="841.84" height="79.24"/>
			<text transform="matrix(1 0 0 1 543.5452 618.0128)"><tspan x="0" y="0" class="st34 st35 st38">I am a skilled UX/UI designer who has various work experience in digital products.</tspan><tspan x="12.44" y="24" class="st34 st35 st38">At the current company, Ive been working on a multi-platform application that </tspan></text>
		</g>
	</g>
</g>
</svg>
