<?xml version="1.0" encoding="utf-8"?>
<!-- Generator: Adobe Illustrator 24.0.2, SVG Export Plug-In . SVG Version: 6.00 Build 0)  -->
<svg version="1.1" xmlns="http://www.w3.org/2000/svg" xmlns:xlink="http://www.w3.org/1999/xlink" x="0px" y="0px"
	 viewBox="0 0 1920 1191.93" style="enable-background:new 0 0 1920 1191.93;" xml:space="preserve">
<style type="text/css">
	.st0{fill:url(#SVGID_1_);}
	.st1{fill:url(#SVGID_2_);}
	.st2{fill:url(#SVGID_3_);}
	.st3{fill:url(#SVGID_4_);}
	.st4{fill:url(#SVGID_5_);}
	.st5{fill:url(#SVGID_6_);}
	.st6{fill:#2357FF;}
	.st7{fill:#23A0FF;}
	.st8{fill:#5FDBFF;}
	.st9{fill:#1A1A1A;}
	.st10{fill:#4225FF;}
	.st11{fill:#427FFF;}
	.st12{fill:#A67C52;}
	.st13{fill:#603813;}
	.st14{fill:#F7931E;}
	.st15{fill:#FBB03B;}
	.st16{fill:#39B593;}
	.st17{fill:#D4145A;}
	.st18{fill:#E4005D;}
	.st19{fill:#2E76FF;}
	.st20{fill:#0056E7;}
	.st21{opacity:0.26;fill:#1A1A1A;}
	.st22{fill:#FFB438;}
	.st23{fill:#003037;}
	.st24{fill:#004D37;}
	.st25{fill:#FFD938;}
	.st26{fill:#1B213D;}
	.st27{fill:#33335C;}
	.st28{fill:#C1272D;}
	.st29{fill:#E42800;}
	.st30{fill:#B3B3B3;}
</style>
<g id="Layer_1">
</g>
<g id="Layer_7">
	<linearGradient id="SVGID_1_" gradientUnits="userSpaceOnUse" x1="1055.3494" y1="652.9457" x2="1920" y2="652.9457">
		<stop  offset="0" style="stop-color:#FFA275"/>
		<stop  offset="1" style="stop-color:#FF2E6A"/>
	</linearGradient>
	<path class="st0" d="M1920,116.63v1075.3h-658.13c57.63-47.56-142.23-12.22-184.65-51.25c-37.75-34.74-22.97-83.67,16.46-98.37
		c3.55-1.33,7.3-2.38,11.23-3.11c0.07-0.02,0.15-0.03,0.22-0.05c1.78-0.32,3.59-0.58,5.44-0.77c1.88-0.2,3.8-0.33,5.75-0.38
		c0.04-0.01,0.09-0.01,0.14-0.01c2.92-0.08,5.92,0.01,8.99,0.27c61.25,5.21,116.73,73.43,236.62,41.8
		c119.89-31.63,18.24-252.81,125.1-273.66c85.53-16.7,79.95,102.79,180.24,113.78c3.45,0.39,7.03,0.64,10.74,0.75
		c99.12,2.97,160.57-22.26,191.34-62.18c24.22-31.4,29.45-71.89,19.11-114.9c-25.54-106.29-201.64-91.97-223-150.71
		c-16.35-44.97,8.88-64.59,48.41-80.04c0.88-0.35,1.76-0.69,2.65-1.02c0.35-0.14,0.7-0.27,1.06-0.4c0.12-0.05,0.24-0.1,0.36-0.14
		c0.44-0.17,0.88-0.33,1.32-0.49c1.02-0.39,2.06-0.77,3.1-1.14c2.47-0.9,4.99-1.78,7.54-2.66c2.65-0.91,5.33-1.82,8.06-2.72
		c0.22-0.08,0.44-0.15,0.66-0.22c2.12-0.71,4.26-1.41,6.42-2.12c4.69-1.54,9.47-3.08,14.3-4.67c0.15-0.04,0.29-0.09,0.44-0.15
		c1.16-0.37,2.33-0.76,3.5-1.15c3.88-1.27,7.78-2.58,11.7-3.93c22.81-7.84,46.03-17,66.51-29.93
		c37.17-23.46,56.57-60.73-28.67-101.65c-55.74-26.75-80.96-127.91-38.12-187.59c7.23-10.07,16.41-18.97,27.7-26.12
		c24.58-15.56,46.34-24.94,65.76-29.54C1887.73,112.85,1904.81,113.04,1920,116.63z"/>
	<g>
		
			<linearGradient id="SVGID_2_" gradientUnits="userSpaceOnUse" x1="1571.3527" y1="837.646" x2="1881.5145" y2="837.646" gradientTransform="matrix(0.8523 0.5231 -0.5231 0.8523 733.1389 -734.5168)">
			<stop  offset="0" style="stop-color:#FFA2CC"/>
			<stop  offset="1" style="stop-color:#FF4F7A"/>
		</linearGradient>
		<path class="st1" d="M1851.46,1032.12c21.87-17.01,29.68-45.6,32.69-76.16c2.98-30.29-1.97-61.06-11.9-89.7
			c-20.46-58.95-64.18-107.53-114.34-144.66c-11.26-8.33-23.4-16.39-37.25-18.51s-29.79,3.3-35.81,15.95
			c-8.43,17.72,5.39,37.19,13.34,55.13c14.3,32.26,8.45,72.49-14.46,99.34c-5.75,6.74-12.61,12.91-15.89,21.14
			c-4.3,10.78-1.65,23.02,2.08,34.01c10.33,30.41,29.26,57.87,53.08,79.29c28.59,25.72,62.19,47.08,101.72,36.93
			C1835.4,1042.13,1844.21,1037.76,1851.46,1032.12z"/>
	</g>
	<g>
		
			<linearGradient id="SVGID_3_" gradientUnits="userSpaceOnUse" x1="1172.0018" y1="940.381" x2="1324.8954" y2="940.381" gradientTransform="matrix(0.8005 0.5993 -0.5993 0.8005 840.4769 -555.8837)">
			<stop  offset="0" style="stop-color:#FFA2CC"/>
			<stop  offset="1" style="stop-color:#FF4F7A"/>
		</linearGradient>
		<path class="st2" d="M1333.52,981.27c7.16-33.43-13.88-65.52-44.5-79.82c-22.36-10.44-49.42-10.12-71.63,0.63
			c-5.27,2.55-10.72,6.21-12.16,11.89c-1.89,7.44,3.78,14.47,9.03,20.06c22.79,24.22,60.23,58.05,83.2,82.07
			c2.55,2.66,5.78,5.02,9.46,5.17c2.26,0.09,4.47-0.67,6.5-1.65c10.45-5.06,15.6-22.84,18.7-33
			C1332.68,984.85,1333.14,983.06,1333.52,981.27z"/>
	</g>
	<g>
		
			<linearGradient id="SVGID_4_" gradientUnits="userSpaceOnUse" x1="1139.2076" y1="246.4829" x2="1261.6338" y2="246.4829" gradientTransform="matrix(0.9244 -0.3813 0.3813 0.9244 427.0812 500.7274)">
			<stop  offset="0" style="stop-color:#FFA2CC"/>
			<stop  offset="1" style="stop-color:#FF4F7A"/>
		</linearGradient>
		<path class="st3" d="M1679.12,246.21c-20.07-18.62-50.76-17.28-73.14-2.07c-16.34,11.11-27.2,29.86-28.9,49.54
			c-0.4,4.67-0.11,9.92,3.2,13.24c4.34,4.35,11.51,3.33,17.5,2c26-5.76,64.61-17.67,90.55-23.64c2.88-0.66,5.82-1.92,7.43-4.39
			c0.99-1.52,1.37-3.35,1.53-5.15c0.8-9.26-9.32-20.09-15.05-26.38C1681.23,248.25,1680.19,247.2,1679.12,246.21z"/>
	</g>
	<g>
		
			<linearGradient id="SVGID_5_" gradientUnits="userSpaceOnUse" x1="935.8692" y1="110.4478" x2="1017.9775" y2="110.4478" gradientTransform="matrix(0.9354 0.3537 -0.3537 0.9354 677.0196 -350.6307)">
			<stop  offset="0" style="stop-color:#FFA270"/>
			<stop  offset="1" style="stop-color:#FF4F06"/>
		</linearGradient>
		<path class="st4" d="M1586.67,108.33c-1.29-18.31-16.92-31.73-34.85-34.55c-13.09-2.06-27,2.14-36.86,11
			c-2.34,2.1-4.6,4.8-4.5,7.95c0.13,4.12,4.11,6.91,7.65,9.01c15.37,9.1,39.73,20.97,55.16,29.95c1.71,1,3.73,1.73,5.65,1.26
			c1.18-0.29,2.21-1.01,3.11-1.82c4.64-4.17,4.65-14.11,4.73-19.81C1586.77,110.3,1586.74,109.3,1586.67,108.33z"/>
	</g>
	<g>
		
			<linearGradient id="SVGID_6_" gradientUnits="userSpaceOnUse" x1="1168.9834" y1="74.9563" x2="1317.0359" y2="74.9563" gradientTransform="matrix(0.9997 0.0229 -0.0229 0.9997 580.7734 42.0898)">
			<stop  offset="0" style="stop-color:#FFA270"/>
			<stop  offset="1" style="stop-color:#FF4F06"/>
		</linearGradient>
		<path class="st5" d="M1887.23,141.71c-13.16-30.37-47.79-43.83-79.97-37.88c-23.5,4.35-44.64,19.82-56.11,40.79
			c-2.72,4.98-4.95,10.93-2.9,16.21c2.69,6.93,11.12,9.28,18.41,10.73c31.59,6.28,80.13,11.87,111.75,17.89
			c3.51,0.67,7.38,0.71,10.37-1.25c1.83-1.2,3.15-3.04,4.2-4.96c5.39-9.87-0.55-26.77-3.82-36.53
			C1888.57,145,1887.93,143.33,1887.23,141.71z"/>
	</g>
	<g>
		<polygon class="st6" points="103.25,258.16 103.25,356.49 18.1,307.32 18.1,208.99 		"/>
		<polygon class="st7" points="188.41,208.99 188.41,307.32 103.25,356.49 103.25,258.16 		"/>
		<polygon class="st8" points="188.41,208.99 103.25,258.16 18.1,208.99 103.25,159.83 		"/>
	</g>
	<g>
		<polygon class="st6" points="18.09,405.71 18.09,504.04 0,493.59 0,395.26 		"/>
		<polygon class="st7" points="103.25,356.54 103.25,454.87 18.09,504.04 18.09,405.71 		"/>
		<polygon class="st8" points="103.25,356.54 18.09,405.71 0,395.26 0,317.82 18.09,307.38 		"/>
	</g>
	<g>
		<polygon class="st6" points="103.25,553.22 103.25,651.55 18.1,602.38 18.1,504.05 		"/>
		<polygon class="st7" points="188.41,504.05 188.41,602.38 103.25,651.55 103.25,553.22 		"/>
		<polygon class="st8" points="188.41,504.05 103.25,553.22 18.1,504.05 103.25,454.89 		"/>
	</g>
	<g>
		<polygon class="st6" points="188.4,700.71 188.4,799.04 103.25,749.87 103.25,651.54 		"/>
		<polygon class="st7" points="273.56,651.54 273.56,749.87 188.4,799.04 188.4,700.71 		"/>
		<polygon class="st8" points="273.56,651.54 188.4,700.71 103.25,651.54 188.4,602.38 		"/>
	</g>
	<g>
		<polygon class="st6" points="443.78,848.2 443.78,946.53 358.63,897.36 358.63,799.03 		"/>
		<polygon class="st7" points="528.94,799.03 528.94,897.36 443.78,946.53 443.78,848.2 		"/>
		<polygon class="st8" points="528.94,799.03 443.78,848.2 358.63,799.03 443.78,749.87 		"/>
	</g>
	<g>
		<polygon class="st6" points="528.94,995.7 528.94,1094.03 443.79,1044.86 443.79,946.53 		"/>
		<polygon class="st7" points="614.1,946.53 614.1,1044.86 528.94,1094.03 528.94,995.7 		"/>
		<polygon class="st8" points="614.1,946.53 528.94,995.7 443.79,946.53 528.94,897.37 		"/>
	</g>
	<g>
		<polygon class="st6" points="358.7,995.65 358.7,1093.98 273.55,1044.81 273.55,946.48 		"/>
		<polygon class="st7" points="443.86,946.48 443.86,1044.81 358.7,1093.98 358.7,995.65 		"/>
		<polygon class="st8" points="443.86,946.48 358.7,995.65 273.55,946.48 358.7,897.32 		"/>
	</g>
	<g>
		<polygon class="st6" points="188.39,995.65 188.39,1093.98 103.24,1044.81 103.24,946.48 		"/>
		<polygon class="st7" points="273.55,946.48 273.55,1044.81 188.39,1093.98 188.39,995.65 		"/>
		<polygon class="st8" points="273.55,946.48 188.39,995.65 103.24,946.48 188.39,897.32 		"/>
	</g>
	<g>
		<polygon class="st6" points="273.59,1143.15 273.59,1191.93 188.44,1191.93 188.44,1093.98 		"/>
		<polygon class="st7" points="358.75,1093.98 358.75,1191.93 273.59,1191.93 273.59,1143.15 		"/>
		<polygon class="st8" points="358.75,1093.98 273.59,1143.15 188.44,1093.98 273.59,1044.82 		"/>
	</g>
	<g>
		<polygon class="st6" points="614.09,1143.15 614.09,1191.93 528.94,1191.93 528.94,1093.98 528.98,1094.01 		"/>
		<polygon class="st7" points="699.25,1093.98 699.25,1191.93 614.09,1191.93 614.09,1143.15 		"/>
		<polygon class="st8" points="699.25,1093.98 614.09,1143.15 528.94,1093.98 614.09,1044.82 		"/>
	</g>
	<g>
		<polygon class="st6" points="784.4,1143.15 784.4,1191.93 699.25,1191.93 699.25,1093.98 		"/>
		<polygon class="st7" points="869.56,1093.98 869.56,1191.93 784.4,1191.93 784.4,1143.15 		"/>
		<polygon class="st8" points="869.56,1093.98 784.4,1143.15 699.25,1093.98 784.4,1044.82 		"/>
	</g>
	<g>
		<polygon class="st6" points="18.09,995.63 18.09,1093.96 0,1083.51 0,985.18 		"/>
		<polygon class="st7" points="103.25,946.46 103.25,1044.79 18.09,1093.96 18.09,995.63 		"/>
		<polygon class="st8" points="103.25,946.46 103.24,946.47 103.2,946.49 18.09,995.63 0,985.18 0,907.74 18.09,897.3 
			103.24,946.45 		"/>
	</g>
	<g>
		<polygon class="st6" points="103.24,848.18 103.24,946.51 18.09,897.34 18.09,799.01 		"/>
		<polygon class="st7" points="188.4,799.01 188.4,897.34 103.24,946.51 103.24,848.18 		"/>
		<polygon class="st8" points="188.4,799.01 103.24,848.18 18.09,799.01 103.24,749.85 		"/>
	</g>
	<g>
		<polygon class="st6" points="18.09,700.72 18.09,799.05 0,788.6 0,690.27 		"/>
		<polygon class="st7" points="103.25,651.54 103.25,749.87 18.09,799.04 18.09,700.71 		"/>
		<polygon class="st8" points="103.25,651.55 18.09,700.72 0,690.27 0,612.83 18.08,602.39 18.09,602.39 		"/>
	</g>
	<g>
		<polygon class="st7" points="18.08,504.06 18.08,602.39 0,612.83 0,514.5 		"/>
		<polygon class="st8" points="18.08,504.06 0,514.5 0,493.62 		"/>
	</g>
</g>
<g id="Layer_5">
	<g>
		<path class="st9" d="M1104.03,1041.78l-9.89,2.7l-0.37-1.36c-0.42-1.53,0.48-3.11,2.01-3.53l8.8-2.41l0.67,2.45
			C1105.51,1040.57,1104.96,1041.53,1104.03,1041.78z"/>
		<path class="st9" d="M1114.7,1041.98l-10.24,0.33l-0.05-1.41c-0.05-1.58,1.19-2.91,2.78-2.96l9.12-0.29l0.08,2.54
			C1116.42,1041.15,1115.67,1041.95,1114.7,1041.98z"/>
		<path class="st10" d="M1110.81,1039.24l-4.47-16.36c-0.43-1.56,0.49-3.17,2.05-3.59l0,0c1.56-0.43,3.17,0.49,3.59,2.05l4.47,16.36
			C1116.88,1039.26,1111.24,1040.8,1110.81,1039.24z"/>
		<path class="st10" d="M1109.36,1024.49L1109.36,1024.49c-1.72-0.04-3.11-1.53-3.16-3.41l-0.76-27.01l8.94,0.19l-1.7,26.93
			C1112.55,1023.07,1111.09,1024.53,1109.36,1024.49z"/>
		<path class="st11" d="M1103.16,1002.23l4.83,0.38c3.33,0.26,6.23-2.22,6.49-5.55l0.32-4.11l-16.88-1.32l-0.32,4.11
			C1097.35,999.06,1099.83,1001.97,1103.16,1002.23z"/>
		<g>
			<path class="st12" d="M1106.49,962.59L1106.49,962.59c2.7,0.27,5.11-1.69,5.38-4.39l1.13-11.13c0.27-2.7-1.69-5.11-4.39-5.38l0,0
				c-2.7-0.27-5.11,1.69-5.38,4.39l-1.13,11.13C1101.83,959.91,1103.8,962.31,1106.49,962.59z"/>
			<path class="st13" d="M1104.52,947.52l9.58,0.98l0.27-2.62c0.22-2.2-1.38-4.17-3.58-4.4l-11.54-1.18l-0.07,0.66
				C1098.84,944.25,1101.23,947.19,1104.52,947.52z"/>
			
				<rect x="1111.82" y="947.04" transform="matrix(-0.9949 -0.1014 0.1014 -0.9949 2123.259 2012.132)" class="st13" width="1.84" height="10.17"/>
		</g>
		<path class="st12" d="M1107.73,958.38l4.71,0.37c0.77,0.06,1.44-0.51,1.5-1.28l0,0c0.06-0.77-0.51-1.44-1.28-1.5l-4.71-0.37
			c-0.77-0.06-1.44,0.51-1.5,1.28l0,0C1106.4,957.65,1106.97,958.32,1107.73,958.38z"/>
		<path class="st11" d="M1100.57,1038.59l-3.79-16.96c-0.38-1.69,0.69-3.36,2.37-3.74l0.2-0.04c1.69-0.38,3.36,0.69,3.74,2.37
			l3.79,16.96C1107.25,1038.86,1100.95,1040.27,1100.57,1038.59z"/>
		<path class="st11" d="M1099.71,1023.4L1099.71,1023.4c-1.71-0.18-2.97-1.79-2.86-3.66l0.87-25.22l16.1,2.41l-10.53,23.46
			C1103.01,1022.26,1101.43,1023.58,1099.71,1023.4z"/>
		<path class="st14" d="M1097.94,992.14l16.82,1.32l2.53-20.89c0.45-5.76-3.21-10.75-8.18-11.14l-0.63-0.05
			c-4.97-0.39-9.37,3.97-9.82,9.73L1097.94,992.14z"/>
		<path class="st12" d="M1082.06,962.48L1082.06,962.48c-0.17,1.04,0.67,2,1.86,2.14l4.65,0.56c1.2,0.15,2.3-0.58,2.47-1.62l0,0
			c0.17-1.04-0.67-2-1.86-2.14l-4.65-0.56C1083.33,960.72,1082.23,961.45,1082.06,962.48z"/>
		<path class="st12" d="M1078.9,948.22L1078.9,948.22c-1.16,0.29-1.83,1.34-1.5,2.35l4.02,12.15c0.33,1.01,1.54,1.59,2.7,1.3l0,0
			c1.16-0.29,1.83-1.34,1.5-2.35l-4.02-12.15C1081.27,948.51,1080.06,947.93,1078.9,948.22z"/>
		<path class="st12" d="M1079.27,951.01l0.32,0c1.22,0,2.22-0.99,2.22-2.21l0-1.34c0-1.23-0.99-2.22-2.21-2.22l-0.32,0
			c-1.22,0-2.22,0.99-2.22,2.21l0,1.34C1077.05,950.01,1078.04,951.01,1079.27,951.01z"/>
		<path class="st15" d="M1088.27,960.46l-0.9,5.61l15.97,1.94c1.78,0.22,3.43-0.86,3.68-2.41l0,0c0.25-1.55-0.99-2.98-2.78-3.2
			L1088.27,960.46z"/>
	</g>
	<g>
		<g>
			<path class="st16" d="M1718.63,512.04c-6.53-5.03-0.39-23.48-0.13-24.26l1.38,0.47c-1.71,5.06-5.11,18.99-0.36,22.64
				L1718.63,512.04z"/>
		</g>
		<path class="st16" d="M1719.37,501.7c-2.72,5.89-3.55,11.31-1.85,12.09c1.7,0.79,5.29-3.35,8.01-9.25
			c2.72-5.89,1.85-12.09,1.85-12.09S1722.09,495.81,1719.37,501.7z"/>
		<path class="st16" d="M1707.82,506.23c3.64,5.37,7.85,8.88,9.4,7.83s-0.14-6.26-3.79-11.63c-3.64-5.37-9.4-7.83-9.4-7.83
			S1704.18,500.85,1707.82,506.23z"/>
		<g>
			<path class="st17" d="M1727.6,485.03c-1.46,5.57-5.29,6.95-9.3,5.9c-4.01-1.05-6.67-4.13-5.22-9.7
				c1.46-5.57,10.23-9.45,10.23-9.45S1729.05,479.46,1727.6,485.03z"/>
			<g>
				<path class="st17" d="M1726.9,482.85c-0.04-0.18-0.08-0.36-0.13-0.55c-1.37-5.11-10.14-10.57-10.14-10.57s-3.04,7.34-3.94,10.79
					c-0.9,3.45,1.46,7.46,5.4,8.49c3.94,1.03,7.91-1.1,8.86-4.76C1727.24,485.1,1727.21,483.93,1726.9,482.85z"/>
				<path class="st17" d="M1714.76,479.67c0.12-0.14,0.25-0.27,0.38-0.41c3.7-3.79,14.02-4.25,14.02-4.25s-0.94,7.89-1.84,11.34
					c-0.9,3.45-4.93,5.79-8.86,4.76c-3.94-1.03-6.36-4.83-5.4-8.49C1713.36,481.47,1713.96,480.47,1714.76,479.67z"/>
			</g>
		</g>
	</g>
	<g>
		<path class="st9" d="M1739.94,508.83l-10.12-1.61l0.22-1.4c0.25-1.57,1.72-2.63,3.29-2.38l9.01,1.44l-0.4,2.51
			C1741.78,508.33,1740.89,508.98,1739.94,508.83z"/>
		<path class="st18" d="M1763.79,499.1l4.84,0.3c3.33,0.21,6.2-2.33,6.4-5.66l0.25-4.12l-16.9-1.04l-0.25,4.12
			C1757.92,496.03,1760.46,498.9,1763.79,499.1z"/>
		<g>
			<path class="st12" d="M1766.28,459.78L1766.28,459.78c2.33-1.38,3.1-4.39,1.72-6.73l-5.71-9.62c-1.38-2.33-4.39-3.1-6.73-1.72
				l0,0c-2.33,1.38-3.1,4.39-1.72,6.73l5.71,9.62C1760.94,460.39,1763.95,461.16,1766.28,459.78z"/>
			<path class="st13" d="M1755.73,448.84l8.29-4.92l-1.34-2.27c-1.13-1.91-3.59-2.53-5.5-1.4l-9.98,5.92l0.34,0.57
				C1749.22,449.59,1752.89,450.52,1755.73,448.84z"/>
			
				<rect x="1764.16" y="442.56" transform="matrix(-0.86 0.5102 -0.5102 -0.86 3511.5237 -67.9555)" class="st13" width="1.84" height="10.17"/>
		</g>
		<path class="st18" d="M1738.1,504.49l3.54-17.02c0.35-1.69,2.01-2.78,3.7-2.43l0.2,0.04c1.69,0.35,2.78,2.01,2.43,3.7l-3.54,17.02
			C1744.07,507.5,1737.75,506.18,1738.1,504.49z"/>
		<path class="st19" d="M1758.64,489.11l16.84,1.04l2.18-20.92c0.36-5.77-3.39-10.7-8.37-11l-0.64-0.04
			c-4.98-0.31-9.3,4.12-9.66,9.89L1758.64,489.11z"/>
		<path class="st12" d="M1749.09,481.93L1749.09,481.93c0.68,1,2.04,1.25,3.04,0.56l3.87-2.66c1-0.68,1.25-2.04,0.56-3.04v0
			c-0.68-1-2.04-1.25-3.04-0.56l-3.87,2.66C1748.66,479.57,1748.41,480.93,1749.09,481.93z"/>
		<path class="st12" d="M1734.36,476.77L1734.36,476.77c-0.27,1.18,0.46,2.35,1.64,2.62l14.18,3.28c1.18,0.27,2.35-0.46,2.62-1.64v0
			c0.27-1.18-0.46-2.35-1.64-2.62l-14.18-3.28C1735.81,474.86,1734.63,475.59,1734.36,476.77z"/>
		<path class="st12" d="M1737.43,477.87L1737.43,477.87c0.64-1.15,0.23-2.6-0.92-3.24l-1.65-0.92c-1.15-0.64-2.6-0.23-3.24,0.92l0,0
			c-0.64,1.15-0.23,2.6,0.92,3.24l1.65,0.92C1735.34,479.42,1736.79,479.01,1737.43,477.87z"/>
		<path class="st20" d="M1752.77,475.31l4.61,4.61l11.41-11.41c1.27-1.27,1.27-3.34,0-4.61l0,0c-1.27-1.27-3.34-1.27-4.61,0
			L1752.77,475.31z"/>
		<path class="st18" d="M1742.23,484.9L1742.23,484.9c0.77-1.54,2.71-2.16,4.43-1.41l20.44,6.24l-5.15,9.07l-18.14-9.5
			C1742.15,488.4,1741.46,486.46,1742.23,484.9z"/>
	</g>
	<ellipse class="st21" cx="784.63" cy="1067.86" rx="20.4" ry="6.15"/>
	<g>
		<path class="st12" d="M763.39,1012.29L763.39,1012.29c-0.84-0.64-0.9-1.91-0.13-2.84l2.97-3.62c0.76-0.93,2.06-1.17,2.9-0.54l0,0
			c0.84,0.64,0.9,1.91,0.13,2.84l-2.97,3.62C765.53,1012.69,764.23,1012.93,763.39,1012.29z"/>
		<path class="st12" d="M770.96,1024.79L770.96,1024.79c-1.04,0.59-2.25,0.3-2.71-0.66l-5.49-11.56c-0.46-0.96,0.02-2.22,1.06-2.81
			l0,0c1.04-0.59,2.25-0.29,2.71,0.66l5.49,11.56C772.47,1022.94,772,1024.2,770.96,1024.79z"/>
		<path class="st12" d="M769.3,1022.52l0.23-0.22c0.88-0.85,2.29-0.82,3.14,0.06l0.93,0.97c0.85,0.88,0.82,2.29-0.06,3.14
			l-0.23,0.22c-0.88,0.85-2.29,0.82-3.14-0.06l-0.93-0.97C768.38,1024.77,768.41,1023.37,769.3,1022.52z"/>
		<path class="st22" d="M769.28,1009.47l-4.53-3.43l10.21-12.44c1.14-1.39,3.08-1.75,4.33-0.8l0,0c1.25,0.95,1.34,2.84,0.2,4.23
			L769.28,1009.47z"/>
		<path class="st9" d="M786.57,1068.57l9.89,2.7l0.37-1.36c0.42-1.53-0.48-3.11-2.01-3.53l-8.8-2.41l-0.67,2.45
			C785.09,1067.36,785.64,1068.32,786.57,1068.57z"/>
		<path class="st9" d="M776.82,1068.78l10.24,0.33l0.05-1.41c0.05-1.58-1.19-2.91-2.78-2.96l-9.12-0.29l-0.08,2.54
			C775.1,1067.94,775.85,1068.74,776.82,1068.78z"/>
		<path class="st23" d="M780.71,1066.03l4.47-16.36c0.43-1.56-0.49-3.17-2.05-3.59l0,0c-1.56-0.43-3.89-0.36-4.32,1.2l-3.75,17.21
			C774.64,1066.05,780.28,1067.59,780.71,1066.03z"/>
		<path class="st23" d="M782.16,1051.28L782.16,1051.28c1.72-0.04,3.11-1.53,3.16-3.41l0.76-27.01l-8.94,0.19l1.7,26.93
			C778.97,1049.86,780.43,1051.32,782.16,1051.28z"/>
		<path class="st24" d="M788.36,1029.02l-4.83,0.38c-3.33,0.26-6.23-2.22-6.49-5.55l-0.32-4.11l16.88-1.32l0.32,4.11
			C794.17,1025.85,791.69,1028.76,788.36,1029.02z"/>
		<g>
			<path class="st12" d="M785.03,989.38L785.03,989.38c-2.7,0.27-5.11-1.69-5.38-4.39l-1.13-11.13c-0.27-2.7,1.69-5.11,4.39-5.38
				l0,0c2.7-0.27,5.11,1.69,5.38,4.39l1.13,11.13C789.69,986.7,787.72,989.1,785.03,989.38z"/>
			<path class="st13" d="M787,974.31l-9.58,0.98l-0.27-2.62c-0.22-2.2,1.38-4.17,3.58-4.4l11.54-1.18l0.07,0.66
				C792.68,971.04,790.29,973.98,787,974.31z"/>
			
				<rect x="777.86" y="973.83" transform="matrix(0.9949 -0.1014 0.1014 0.9949 -95.2039 83.97)" class="st13" width="1.84" height="10.17"/>
		</g>
		<path class="st12" d="M783.79,985.17l-4.71,0.37c-0.77,0.06-1.44-0.51-1.5-1.28l0,0c-0.06-0.77,0.51-1.44,1.28-1.5l4.71-0.37
			c0.77-0.06,1.44,0.51,1.5,1.28l0,0C785.12,984.44,784.55,985.11,783.79,985.17z"/>
		<path class="st24" d="M790.95,1065.38l3.79-16.96c0.38-1.69-0.69-3.36-2.37-3.74l-0.2-0.04c-1.69-0.38-3.36,0.69-3.74,2.37
			l-3.79,16.96C784.27,1065.65,790.57,1067.06,790.95,1065.38z"/>
		<path class="st24" d="M791.81,1050.19L791.81,1050.19c1.71-0.18,2.97-1.79,2.86-3.66l-0.87-25.22l-16.1,2.41l10.53,23.46
			C788.51,1049.05,790.09,1050.37,791.81,1050.19z"/>
		<path class="st25" d="M793.58,1018.93l-16.82,1.32l-2.53-20.89c-0.45-5.76,3.21-10.75,8.18-11.14l0.63-0.05
			c4.97-0.39,9.37,3.97,9.82,9.73L793.58,1018.93z"/>
		<path class="st12" d="M805.88,1009.35L805.88,1009.35c-0.66,0.82-1.93,0.85-2.84,0.06l-3.54-3.07c-0.91-0.79-1.11-2.1-0.45-2.92
			l0,0c0.66-0.82,1.93-0.85,2.84-0.06l3.54,3.07C806.33,1007.23,806.54,1008.53,805.88,1009.35z"/>
		<path class="st12" d="M818.58,1002.13L818.58,1002.13c0.56,1.06,0.23,2.26-0.74,2.69l-11.71,5.17c-0.97,0.43-2.22-0.08-2.78-1.13
			l0,0c-0.56-1.06-0.23-2.26,0.74-2.69l11.71-5.17C816.78,1000.57,818.02,1001.08,818.58,1002.13z"/>
		<path class="st12" d="M816.26,1003.73l-0.22-0.24c-0.82-0.91-0.75-2.31,0.15-3.13l0.99-0.9c0.91-0.82,2.31-0.76,3.13,0.15
			l0.22,0.24c0.82,0.91,0.75,2.31-0.15,3.13l-0.99,0.9C818.49,1004.71,817.09,1004.64,816.26,1003.73z"/>
		<path class="st25" d="M803.22,1003.39l-3.56,4.43l-12.15-10.55c-1.36-1.18-1.66-3.13-0.68-4.35l0,0c0.98-1.22,2.88-1.26,4.24-0.08
			L803.22,1003.39z"/>
	</g>
	<path class="st21" d="M204.42,624.75v-9.16l-1.55-0.19c1-0.73,1.55-1.52,1.55-2.35c0-3.4-9.13-6.15-20.4-6.15s-20.4,2.75-20.4,6.15
		s9.13,6.15,20.4,6.15c3.96,0,7.65-0.35,10.78-0.94c1.12,0.3,1.9,0.62,2,0.94c0.41,1.28,0.45,9.31,3.33,10.92
		c2.88,1.6,7.8,2.73,7.8,2.73L204.42,624.75z"/>
	<g>
		<path class="st9" d="M200.12,630.11l8.95,4.99l0.69-1.24c0.77-1.39,0.27-3.13-1.11-3.9l-7.97-4.44l-1.24,2.22
			C198.98,628.58,199.28,629.64,200.12,630.11z"/>
		<path class="st9" d="M223.06,621.05l7.76-6.7l-0.92-1.07c-1.04-1.2-2.85-1.33-4.05-0.3l-6.9,5.96l1.66,1.92
			C221.23,621.6,222.33,621.68,223.06,621.05z"/>
		<path class="st26" d="M222.79,615.2l-15.43-7.03c-1.47-0.67-3.21-0.02-3.88,1.45l0,0c-0.67,1.47-0.02,3.21,1.45,3.88l15.43,7.03
			C221.84,621.19,224.26,615.87,222.79,615.2z"/>
		<path class="st26" d="M208.47,611.4L208.47,611.4c0.24-1.7-1.02-3.32-2.86-3.67l-26.54-5.08l-1.24,8.85l26.85,2.64
			C206.56,614.32,208.23,613.11,208.47,611.4z"/>
		<path class="st27" d="M182.15,613.34l-3.9,0.31c-3.59,0.28-6.72-2.4-7-5.98l-0.41-5.28l16.88-1.32l0.41,5.28
			C188.41,609.92,185.73,613.06,182.15,613.34z"/>
		<g>
			<path class="st12" d="M177.75,571.34L177.75,571.34c-2.62-0.7-4.18-3.39-3.48-6.01l2.88-10.81c0.7-2.62,3.39-4.18,6.01-3.48l0,0
				c2.62,0.7,4.18,3.39,3.48,6.01l-2.88,10.81C183.06,570.48,180.37,572.04,177.75,571.34z"/>
			<path class="st13" d="M184.93,557.95l-9.31-2.48l0.68-2.55c0.57-2.14,2.77-3.41,4.91-2.84l11.21,2.98l-0.17,0.65
				C191.39,556.9,188.12,558.8,184.93,557.95z"/>
			
				<rect x="174.69" y="554.26" transform="matrix(0.9663 0.2573 -0.2573 0.9663 149.8135 -26.35)" class="st13" width="1.84" height="10.17"/>
		</g>
		<path class="st27" d="M205.58,627.36l2.31-20.69c0.23-2.06-0.98-3.88-2.69-4.07l-0.2-0.02c-1.72-0.19-3.3,1.32-3.53,3.38
			l-2.31,20.69C198.93,628.7,205.35,629.42,205.58,627.36z"/>
		<path class="st27" d="M207.71,605.28L207.71,605.28c0.09-1.72-1.29-3.22-3.16-3.41l-24.6-0.35l3.27,11.52l20.94-4.71
			C206.05,608.35,207.61,607.01,207.71,605.28z"/>
		<path class="st28" d="M187.71,601.58l-16.82,1.32l-2.53-20.89c-0.45-5.76,3.21-10.75,8.18-11.14l0.63-0.05
			c4.97-0.39,9.37,3.97,9.82,9.73L187.71,601.58z"/>
		<path class="st12" d="M177.18,599.03L177.18,599.03c-1.2-0.08-2.12-1.12-2.03-2.33l0.32-4.68c0.08-1.2,1.12-2.12,2.33-2.03h0
			c1.2,0.08,2.12,1.12,2.03,2.33l-0.32,4.68C179.42,598.2,178.38,599.12,177.18,599.03z"/>
		<path class="st12" d="M194.47,595.47L194.47,595.47c0.15,1.2-0.71,2.29-1.9,2.44l-14.45,1.77c-1.2,0.15-2.29-0.71-2.44-1.9l0,0
			c-0.15-1.2,0.71-2.29,1.9-2.44l14.45-1.77C193.24,593.42,194.33,594.27,194.47,595.47z"/>
		<path class="st12" d="M191.51,596v-0.97c0-1.05,0.85-1.9,1.9-1.9h2.86c1.05,0,1.9,0.85,1.9,1.9V596c0,1.05-0.85,1.9-1.9,1.9h-2.86
			C192.36,597.89,191.51,597.05,191.51,596z"/>
		<path class="st29" d="M180.73,593.44l-6.51-0.44l1.09-16.09c0.12-1.8,1.68-3.16,3.48-3.03h0c1.8,0.12,3.16,1.68,3.03,3.48
			L180.73,593.44z"/>
		<path class="st30" d="M213.05,599.61l-22.59,1.38c-1.43,0.09-2.66-1-2.75-2.43l0-0.01l27.77-1.69l0,0.01
			C215.56,598.3,214.48,599.53,213.05,599.61z"/>
		<path class="st30" d="M220.33,573.93l-4.79,22.12c-0.3,1.4-1.68,2.29-3.09,1.99l-0.01,0l5.89-27.19l0.01,0
			C219.74,571.14,220.63,572.53,220.33,573.93z"/>
	</g>
</g>
<g id="Layer_6">
</g>
</svg>
