<?xml version="1.0" encoding="utf-8"?>
<!-- Generator: Adobe Illustrator 21.0.0, SVG Export Plug-In . SVG Version: 6.00 Build 0)  -->
<svg version="1.1" id="Layer_1" xmlns="http://www.w3.org/2000/svg" xmlns:xlink="http://www.w3.org/1999/xlink" x="0px" y="0px"
	 viewBox="0 0 189 43.2" style="enable-background:new 0 0 189 43.2;" xml:space="preserve">
<style type="text/css">
	.st0{fill:none;stroke:#231F20;stroke-width:1.8;stroke-linecap:round;stroke-linejoin:round;stroke-miterlimit:10;}
	.st1{fill:#231F20;}
	.st2{fill:none;stroke:#231F20;stroke-linecap:round;stroke-linejoin:round;stroke-miterlimit:10;}
</style>
<g>
	<g id="Layer_1_1_">
		<path class="st0" d="M1.2,10.4C5.5,10,26,8.2,26.8,2.5c0.3-1.9-1.5-0.7-2.3,1c-0.9,1.6-10.8,18.7-11.2,22.6c0,0,3.6-9.5,7-9.2
			s-1.8,7,1.1,8.2c2.9,1.2,9.5-8.8,9.5-8.8"/>
	</g>
	<path class="st0" d="M31,16.2c0,0-4.4,8.9-1.1,9.1s8.5-6.7,8.7-7.7c0.2-1-0.1-0.9-0.1-0.9s3.3-0.7,4.2-0.1c0.8,0.6-0.1,2.1-1.4,3.9
		c-1.2,1.8-2.7,4.2-0.8,4.8c2.2,0.8,8.5-4.8,8.5-4.8"/>
	<path class="st1" d="M34.5,10.2c-1.6,0.2-2.4,2.2-1.2,2.4c1.3,0.2,2-0.4,1.9-1.2C35.2,10.7,35.2,10.2,34.5,10.2z"/>
	<path class="st0" d="M55.7,15.3c0,0-1-0.5-1.9-0.3c-1.7,0.2-4,3-4.8,5.9s0.7,4.1,2,4.4s4.5-3.2,4.9-5.3s0.1-3.2-0.7-3.2
		c-0.8,0-1.9,1.8-0.9,2.4c1.1,0.6,1.9,0.5,3.1,0.1c1.2-0.4,16.7-12.8,16.7-14.7c0.1-1.9-1.4-0.6-2.3,0c-1.1,0.8-10.7,18.4-11.3,21
		c0,0,5.6-10,10.4-10.6c0,0-7.9,2.8-6.1,7.2s6.2,3.5,8.2,3c2.6-0.6,8.4-4.2,8.4-4.2"/>
	<path class="st0" d="M85.9,16.4c-0.5-0.4-1.2-0.7-2.1,0c-0.8,0.7-5.3,8.5-2.5,9.2s6.7-5.8,7.1-6.9s0.2-2.4-0.8-2s-3,2.4-1.9,3.4
		c1,1,4,0.5,7.1-2.3"/>
	<path class="st0" d="M96.8,15c0,0,0.8,0.3,2.1,0c1.4-0.3,10.2-8,11.6-10s0.1-2.2-0.7-1.8c-0.8,0.4-1.7,1.1-2.4,1.9
		c-0.6,0.8-9.1,13.6-9.8,16.6c-0.6,2.5,0.1,3.8,2.3,3.6c2.2-0.2,8-6.3,8.3-8.6c0,0-1.5,1.4-0.2,2.3s3.7,1.8,8.6-0.6"/>
	<path class="st0" d="M118,17.5c0,0-2.8,1.6-3.9,3.9c-1.1,2.3-1.1,3.8,0.5,3.9s4.8-1.6,6-4.4s0.4-2.9-0.4-3.1
		c-0.7-0.2-1.3,0.8-0.8,1.5c0.5,0.7,0.9,1.5,2.6,1.2s4.1-3.2,5.5-3s1.2,1.3,0.5,2.3s-4,5.2-1.2,5.5c2.7,0.3,5.3-4,6.7-5.2
		c1.3-1.3,2.6-3,3.9-3c0,0-5.6,3.4-5,6.2c0.5,2.4,3.1,2,5.2,1.3c4-1.4,4.8-7.2,14.4-5"/>
	<path class="st0" d="M142.9,16.8c0,0,0.9-1.8,3.2-1.1c1.7,0.5,1.1,3.5-1.4,6.5c-2.9,3.6-6.3,6.9-8.3,11.2c-0.5,1.1-0.9,2.4-0.7,3.7
		c0.8,5.1,6.6,5.2,10.4,4"/>
	<path class="st0" d="M158.9,19.3c0,0,0.4-2.3-1.9-2.5c-2.3-0.2-5.1,3.5-5.8,4.7c-0.7,1.2-1,3.3,1.4,3.3c2.4,0,7.6-6.8,7.6-6.8
		s-2.7,4-2.5,5.5s2.6,1.8,4.2,1.2c1.7-0.6,8.8-8,8.8-8s0.3,4.7-0.2,6.3c-0.7,1.7-2.7,1.5-4.1,0.5c0,0,9.6-6.4,17-6.3"/>
</g>
<g id="Layer_1_2_">
	<path class="st2" d="M1.2,82.8c4.2-0.4,24.8-2.2,25.6-7.9c0.3-1.9-1.5-0.7-2.3,1c-0.9,1.6-10.8,18.7-11.2,22.6c0,0,3.6-9.5,7-9.2
		c3.4,0.3-1.8,7,1.1,8.2c2.9,1.2,9.5-8.8,9.5-8.8"/>
</g>
<g id="Layer_2_1_">
	<path class="st2" d="M31,88.6c0,0-4.4,8.9-1.1,9.1c3.3,0.2,10.3-7,10.5-8c0.2-1,0-0.7,0-0.7s1.5-0.6,2.4,0c0.8,0.6-0.1,2.1-1.4,3.9
		c-1.2,1.8-2.7,4.2-0.8,4.8c2.2,0.8,9.5-5.4,9.5-5.4"/>
	<path class="st1" d="M34.5,82.6c-1.6,0.2-2.4,2.2-1.2,2.4c1.3,0.2,2-0.4,1.9-1.2C35.2,83.1,35.2,82.6,34.5,82.6z"/>
	<path class="st2" d="M55.7,87.7c0,0-0.1-0.8-1-0.8s-3.9,3.1-4.7,6s-0.3,4.4,1,4.7c1.3,0.3,4.5-3.2,4.9-5.3s0.1-3.2-0.7-3.2
		c-0.8,0-1.9,1.8-0.9,2.4c1.1,0.6,1.9,0.5,3.1,0.1s16.7-12.8,16.7-14.7c0.1-1.9-1.4-0.6-2.3,0c-1.1,0.8-10.7,18.4-11.3,21
		c0,0,5.6-10,10.4-10.6c0,0-7.9,2.8-6.1,7.2s6.2,3.5,8.2,3c2.6-0.6,8.4-4.2,8.4-4.2"/>
	<path class="st2" d="M85.9,88.8c-0.5-0.4-1.2-0.7-2.1,0c-0.8,0.7-5.3,8.5-2.5,9.2c2.8,0.7,6.7-5.8,7.1-6.9c0.4-1.1,0.2-2.4-0.8-2
		c-1,0.4-3,2.4-1.9,3.4c1,1,4,0.5,7.1-2.3"/>
	<path class="st2" d="M99.2,87.4c0,0,0.8,0.3,2.1,0c1.4-0.3,10.2-8,11.6-10s0.1-2.2-0.7-1.8c-0.8,0.4-1.7,1.1-2.4,1.9
		c-0.6,0.8-9.1,13.6-9.8,16.6c-0.6,2.5,0.1,3.8,2.3,3.6c2.2-0.2,8-6.3,8.3-8.6c0,0-1.5,1.4-0.2,2.3c1.3,0.9,3.7,1.8,8.6-0.6"/>
	<path class="st2" d="M120.4,89.9c0,0-2.8,1.6-3.9,3.9c-1.1,2.3-1.1,3.8,0.5,3.9c1.6,0.1,4.8-1.6,6-4.4s0.4-2.9-0.4-3.1
		c-0.7-0.2-1.3,0.8-0.8,1.5c0.5,0.7,0.9,1.5,2.6,1.2c1.7-0.3,4.1-3.2,5.5-3c1.4,0.2,1.2,1.3,0.5,2.3s-4,5.2-1.2,5.5
		c2.7,0.3,5.3-4,6.7-5.2c1.3-1.3,2.6-3,3.9-3c0,0-5.6,3.4-5,6.2c0.5,2.4,3.1,2.7,5.2,2c4-1.4,7.3-5.9,12-4.8c0,0,2.1,0.4,2.4,1.8"/>
	<path class="st2" d="M146.2,89.2c0,0,0.5-1.4,2.3-1.1c1.8,0.3,1.1,3.5-1.4,6.5c-2.9,3.6-6.3,6.9-8.3,11.2c-0.5,1.1-0.9,2.4-0.7,3.7
		c0.8,5.1,6.6,5.2,10.4,4"/>
	<path class="st2" d="M162.1,92.3c0,0,0.4-2.3-1.9-2.5c-2.3-0.2-5.1,3.4-5.8,4.6s-1,3.3,1.4,3.3s7.7-6.7,7.7-6.7s-3.7,4-3.5,5.5
		s1.8,1.5,3.5,0.9s10.5-7.6,10.5-7.6s0.3,4.7-0.3,6.3c-0.7,1.7-2.7,1.5-4.1,0.5c0,0,9.7-6.3,17.1-6.1"/>
</g>
<text transform="matrix(1 0 0 1 4.1055 -52.7015)" style="font-family:'ShorelinesScriptBold'; font-size:25.967px;">Hiroko bouzas</text>
</svg>
